<?xml version="1.0" standalone="no"?>
<!DOCTYPE svg PUBLIC "-//W3C//DTD SVG 1.1//EN" "http://www.w3.org/Graphics/SVG/1.1/DTD/svg11.dtd" >
<svg xmlns="http://www.w3.org/2000/svg" xmlns:xlink="http://www.w3.org/1999/xlink" version="1.1">
<metadata>
Created by FontForge 20170731 at Sun Mar  6 23:50:24 2022
 By Aleksey,,,
Copyright (c) 2013 by Font Bureau. All rights reserved. |DCNT
</metadata>
<defs>
<font id="BureauGrot-CondensedBlack" horiz-adv-x="931" >
  <font-face 
    font-family="Bureau Grot Condensed Black"
    font-weight="900"
    font-stretch="condensed"
    units-per-em="2048"
    panose-1="2 0 6 6 5 0 0 2 0 4"
    ascent="1573"
    descent="-475"
    x-height="1192"
    cap-height="1573"
    bbox="-332 -446 2474 1952"
    underline-thickness="47"
    underline-position="-318"
    unicode-range="U+0020-FB04"
  />
<missing-glyph horiz-adv-x="1024" 
 />
    <glyph glyph-name="f_f" unicode="ff" horiz-adv-x="1198" 
d="M1219 1192v-246h-175v-946h-382v946h-154v-946h-383v946h-137v246h137v141q0 128 115 205q115 80 301 80q141 0 239 -59q94 61 258 61q149 0 238.5 -63.5t89.5 -192.5q0 -67 -10 -90l-269 -29q7 12 7 53q0 95 -47 95q-46 0 -46 -72q0 -28 10.5 -70t12.5 -59h195z
M666 1370q-22 31 -78 31q-38 0 -59 -22.5t-21 -61.5v-125h156v143q0 8 1 20t1 15z" />
    <glyph glyph-name="f_f_i" unicode="ffi" horiz-adv-x="1642" 
d="M1044 1192h539v-1192h-383v946h-156v-946h-382v946h-154v-946h-383v946h-137v246h137v131q0 128 115 205q113 79 301 82q145 0 250 -62q93 66 288 66q152 0 273 -62q118 -58 121 -196q2 -48 -19 -109l-303 -26q12 36 12 84q0 49 -13.5 69.5t-47.5 20.5q-58 0 -58 -70
v-133zM666 1360q-12 13 -34.5 22t-43.5 9q-38 0 -59 -22.5t-21 -61.5v-115h156v133q0 5 1 18t1 17z" />
    <glyph glyph-name="f_f_l" unicode="ffl" horiz-adv-x="1642" 
d="M1268 1573h315v-1573h-383v946h-156v-946h-382v946h-154v-946h-383v946h-137v246h137v133q0 128 115 205q115 80 301 80q145 0 250 -62q93 66 288 66q109 0 189 -41zM666 1362q-12 13 -34.5 22t-43.5 9q-38 0 -59 -22.5t-21 -61.5v-117h156v135q0 5 1 18t1 17zM1044 1192
h156v156q-24 38 -76 38q-80 0 -80 -98v-96z" />
    <glyph glyph-name=".notdef" horiz-adv-x="1024" 
 />
    <glyph glyph-name=".null" horiz-adv-x="0" 
 />
    <glyph glyph-name="nonmarkingreturn" horiz-adv-x="682" 
 />
    <glyph glyph-name="space" unicode=" " horiz-adv-x="495" 
 />
    <glyph glyph-name="exclam" unicode="!" horiz-adv-x="538" 
d="M465 1573v-580l-72 -508h-250l-69 508v580h391zM451 362v-362h-365v362h365z" />
    <glyph glyph-name="quotedbl" unicode="&#x22;" horiz-adv-x="829" 
d="M381 1573l-39 -535h-244l-37 535h320zM774 1573l-39 -535h-246l-36 535h321z" />
    <glyph glyph-name="numbersign" unicode="#" horiz-adv-x="1370" 
d="M1104 1159h268l-57 -280h-271l-40 -185h266l-60 -282h-266l-78 -428h-237l80 428h-211l-80 -428h-236l78 428h-262l57 282h262l43 185h-260l58 280h260l82 430h237l-82 -430h209l82 430h236zM764 694l43 185h-209l-43 -185h209z" />
    <glyph glyph-name="dollar" unicode="$" horiz-adv-x="1003" 
d="M977 492q0 -240 -117 -334q-122 -99 -258 -113v-129h-225v131q-154 11 -247 106t-93 267q0 75 16 129l350 29q-6 -16 -6 -107q0 -88 25 -128t82 -40q86 0 86 121q0 78 -42.5 127t-154.5 100q-184 81 -269 195t-85 293q0 183 102 282q101 101 236 113v84h225v-86
q125 -12 225 -92q99 -76 99 -240q0 -24 -15 -106l-342 -23q0 2 5.5 33.5t5.5 46.5q0 77 -16.5 112t-63.5 35q-86 0 -86 -110q0 -66 41.5 -104.5t158.5 -82.5q166 -66 264.5 -194t98.5 -315z" />
    <glyph glyph-name="percent" unicode="%" horiz-adv-x="1718" 
d="M768 1133q0 -220 -98 -327.5t-269 -107.5q-158 0 -264 95q-104 94 -104 340q0 276 110 364q115 92 258 92q162 0 265 -92q102 -89 102 -364zM467 1141q0 149 -14 200.5t-56 51.5q-38 0 -50.5 -51t-12.5 -199q0 -147 12.5 -196.5t50.5 -49.5q42 0 56 50t14 194zM1677 414
q0 -220 -97.5 -327t-268.5 -107q-160 0 -264 94q-105 94 -105 340q0 274 111 362q115 92 258 92q161 0 264 -92q102 -88 102 -362zM1376 420q0 151 -13.5 201.5t-55.5 50.5q-38 0 -51 -51.5t-13 -198.5q0 -146 13 -196t51 -50q41 0 55 50.5t14 193.5zM1266 1559h231
l-1059 -1559h-231z" />
    <glyph glyph-name="ampersand" unicode="&#x26;" horiz-adv-x="1427" 
d="M1411 272q-2 -134 -84.5 -214.5t-224.5 -80.5q-101 0 -164.5 25.5t-108.5 81.5q-51 -46 -137.5 -76.5t-185.5 -30.5q-223 0 -347 122.5t-120 346.5q3 204 139 334q131 128 244 205l-35 115q-25 86 -25 160q0 160 97.5 249.5t279.5 89.5q170 0 258 -75t86 -213
q-3 -122 -108 -217q-97 -87 -189 -150q0 -3 21 -61l47 -113l49 -119q28 -64 29 -65q73 187 76 196q18 62 34 142q19 93 19 127h248q0 -60 -29 -195q-29 -130 -63 -217q-77 -204 -152 -313q19 -44 44.5 -72t53.5 -27q60 0 60 88q0 45 -15 72l181 16q22 -52 22 -131zM692 289
l-37 78l-61 141q-34 69 -62 149q-28 82 -30 84q-35 -44 -55.5 -116.5t-16.5 -155.5q5 -98 46 -156.5t116 -58.5q33 0 62 11.5t38 23.5zM817 1311q3 84 -57 84q-58 0 -58 -97q-2 -52 23 -159q82 61 92 172z" />
    <glyph glyph-name="quotesingle" unicode="'" horiz-adv-x="446" 
d="M383 1573l-39 -535h-244l-37 535h320z" />
    <glyph glyph-name="parenleft" unicode="(" horiz-adv-x="630" 
d="M643 -295l-88 -53q-244 177 -360.5 424t-116.5 581q3 328 133 576q133 254 334 397l90 -57q-89 -206 -139 -428q-45 -202 -45 -490q0 -290 43 -487q50 -211 149 -463z" />
    <glyph glyph-name="parenright" unicode=")" horiz-adv-x="630" 
d="M-12 1579l88 55q249 -177 366 -421t117 -578q-3 -327 -133 -578q-128 -250 -338 -401l-92 59q90 207 139 430q47 214 47 492q0 287 -47 483q-50 210 -147 459z" />
    <glyph glyph-name="asterisk" unicode="*" horiz-adv-x="933" 
d="M627 1188l260 -72l-142 -231l-200 178l67 -258h-282l61 258l-203 -180l-141 233l264 72l-262 76l139 235l201 -182l-59 256h282l-65 -256l192 186l144 -237z" />
    <glyph glyph-name="plus" unicode="+" horiz-adv-x="1062" 
d="M993 918v-279h-315v-326h-299v326h-307v279h307v325h299v-325h315z" />
    <glyph glyph-name="comma" unicode="," horiz-adv-x="503" 
d="M434 362v-329q0 -109 -31 -170q-34 -66 -104 -125q-34 -28 -72.5 -50t-62.5 -28l-51 141q54 30 80 62q36 41 36 106v31h-159v362h364z" />
    <glyph glyph-name="hyphen" unicode="-" horiz-adv-x="882" 
d="M815 823v-299h-749v299h749z" />
    <glyph glyph-name="hyphen" unicode="&#x2011;" horiz-adv-x="882" 
d="M815 823v-299h-749v299h749z" />
    <glyph glyph-name="hyphen" unicode="&#x2010;" horiz-adv-x="882" 
d="M815 823v-299h-749v299h749z" />
    <glyph glyph-name="hyphen" unicode="&#xad;" horiz-adv-x="882" 
d="M815 823v-299h-749v299h749z" />
    <glyph glyph-name="period" unicode="." horiz-adv-x="503" 
d="M434 362v-362h-364v362h364z" />
    <glyph glyph-name="slash" unicode="/" horiz-adv-x="813" 
d="M575 1573h240l-575 -1589h-240z" />
    <glyph glyph-name="zero" unicode="0" horiz-adv-x="1079" 
d="M537 -23q-227 0 -365 156q-135 156 -135 660q0 457 133 628q134 168 367 168q230 0 368 -170q137 -168 137 -626q0 -489 -120 -652q-120 -164 -385 -164zM541 303q46 0 61 74q14 69 14 411q0 327 -14 404q-12 82 -63 82q-47 0 -62 -82q-12 -80 -12 -404q0 -338 14 -409
q15 -76 62 -76z" />
    <glyph glyph-name="one" unicode="1" horiz-adv-x="800" 
d="M676 1585v-1585h-410v1147h-262v227q157 14 270 72q111 64 148 139h254z" />
    <glyph glyph-name="two" unicode="2" horiz-adv-x="1064" 
d="M1018 1139q0 -216 -125.5 -411.5t-372.5 -403.5l496 12v-336h-955l-6 225l357 420q182 212 182 483q0 104 -19 145.5t-69 41.5q-48 0 -65 -45t-17 -150q0 -118 29 -237l-367 -17q-53 161 -53 293q0 211 139 320q137 107 358 110q229 0 358.5 -114t129.5 -336z" />
    <glyph glyph-name="three" unicode="3" horiz-adv-x="987" 
d="M973 444q0 -266 -144 -368q-144 -99 -364 -99q-209 0 -320.5 101.5t-113.5 273.5q0 129 28 223l365 11q-25 -109 -25 -174q0 -79 18.5 -114.5t59.5 -35.5q48 0 66 45t18 168q0 134 -38 188t-126 54h-137v256h137q75 0 100 39.5t25 156.5q0 91 -12.5 121.5t-48.5 30.5
q-35 0 -48.5 -27.5t-13.5 -91.5q0 -43 19 -117l-361 11q-22 55 -22 143q0 148 117 250q118 100 319 100q233 0 338.5 -97.5t105.5 -311.5q0 -130 -64.5 -219.5t-174.5 -102.5q133 -6 215 -115t82 -299z" />
    <glyph glyph-name="four" unicode="4" horiz-adv-x="1148" 
d="M1130 569v-278h-157v-291h-387v291h-535v352l533 930h389v-1004h157zM342 569h248l4 473z" />
    <glyph glyph-name="five" unicode="5" horiz-adv-x="1042" 
d="M1010 565q0 -334 -136 -461t-354 -127q-228 0 -351.5 95.5t-123.5 277.5q0 94 25 176l374 21q-14 -54 -14 -115q0 -92 18 -128t60 -36q48 0 67 54q19 59 19 245q0 157 -21 203q-18 47 -69 47q-41 0 -60.5 -36.5t-19.5 -92.5l-346 17l33 868h798q0 -33 -4 -127
q-1 -8 -2.5 -26l-3 -36t-2.5 -36q-3 -59 -10 -80h-463l-27 -252q62 88 193 88q180 0 299 -125q121 -124 121 -414z" />
    <glyph glyph-name="six" unicode="6" horiz-adv-x="1071" 
d="M1040 524q0 -302 -137 -424q-135 -123 -352 -123q-265 0 -391 181q-123 182 -123 626q0 478 141 641q144 164 391 164q235 0 324 -102q90 -104 90 -227q0 -76 -14 -125l-359 -13q0 1 3.5 18.5t5.5 36t2 37.5q0 109 -70 109q-57 0 -75.5 -72.5t-18.5 -240.5q0 -15 1 -49.5
t1 -51.5q27 46 81 76.5t115 30.5q185 2 285 -122.5t100 -369.5zM627 504q0 150 -17 203q-15 49 -63 49q-50 0 -66 -53.5t-16 -198.5q0 -128 16.5 -179t65.5 -51q47 0 63.5 47.5t16.5 182.5z" />
    <glyph glyph-name="seven" unicode="7" horiz-adv-x="972" 
d="M961 1573v-244q-138 -202 -209 -368q-113 -290 -113 -658q0 -168 23 -303h-455q-6 94 18 289q69 559 350 971h-563q-7 18 -10 90v108q0 88 2 115h957z" />
    <glyph glyph-name="eight" unicode="8" horiz-adv-x="1085" 
d="M1053 436q0 -459 -510 -459t-510 459q0 199 73 297q73 102 148 129q-180 61 -180 301q0 208 121 317t348 109q226 0 347.5 -109.5t121.5 -316.5q0 -146 -62 -211q-57 -63 -116 -90q72 -28 145 -121q74 -92 74 -305zM621 489q0 149 -15 195q-15 45 -63 45q-47 0 -62 -45
q-12 -46 -12 -195q0 -133 14 -177t60 -44q51 0 63 41q15 43 15 180zM616 1161q0 96 -15.5 130t-57.5 34q-38 0 -55 -37t-17 -127q0 -109 16 -148.5t56 -39.5q29 0 44 14.5t22 55t7 118.5z" />
    <glyph glyph-name="nine" unicode="9" horiz-adv-x="1071" 
d="M31 1042q0 301 135 424q138 123 354 123q266 0 389 -182q125 -180 125 -625q0 -481 -143 -643q-140 -162 -389 -162q-236 0 -324 101q-90 104 -90 229q0 70 14 125l359 12q-10 -70 -10 -92q0 -52 15 -80t54 -28q57 0 75.5 72.5t18.5 240.5q0 15 -1 49t-1 51
q-25 -45 -79.5 -75.5t-116.5 -30.5q-186 0 -285.5 122.5t-99.5 368.5zM444 1063q0 -149 17 -205q15 -47 63 -47q50 0 66 52.5t16 199.5q0 129 -16.5 179t-65.5 50q-47 0 -63.5 -47t-16.5 -182z" />
    <glyph glyph-name="colon" unicode=":" horiz-adv-x="503" 
d="M434 362v-362h-364v362h364zM434 1104v-363h-364v363h364z" />
    <glyph glyph-name="semicolon" unicode=";" horiz-adv-x="503" 
d="M434 362v-329q0 -109 -31 -170q-34 -66 -104 -125q-34 -28 -72.5 -50t-62.5 -28l-51 141q54 30 80 62q36 41 36 106v31h-159v362h364zM434 1104v-363h-364v363h364z" />
    <glyph glyph-name="less" unicode="&#x3c;" horiz-adv-x="778" 
d="M686 516v-334l-627 426v260l627 432v-335l-356 -226z" />
    <glyph glyph-name="equal" unicode="=" horiz-adv-x="1034" 
d="M958 698v-278h-882v278h882zM958 1133v-281h-882v281h882z" />
    <glyph glyph-name="greater" unicode="&#x3e;" horiz-adv-x="778" 
d="M719 608l-627 -426v334l357 223l-357 226v335l627 -432v-260z" />
    <glyph glyph-name="question" unicode="?" horiz-adv-x="958" 
d="M926 1079q0 -277 -109 -366q-110 -90 -237 -90q-63 0 -107.5 21.5t-66.5 55.5v-217h-279v525h276q6 -55 23.5 -80t52.5 -25q36 0 49 38.5t13 137.5q0 149 -19 201q-18 49 -73 49q-70 0 -70 -98q0 -56 22 -105l-342 -2q-32 62 -32 162q0 145 112 229t326 84
q196 0 328 -108q133 -109 133 -412zM457 362v-362h-365v362h365z" />
    <glyph glyph-name="at" unicode="@" horiz-adv-x="1929" 
d="M1833 842q0 -284 -160 -449q-155 -162 -338 -162q-131 0 -197 40t-73 98q-35 -49 -102 -99q-65 -47 -211 -47q-110 0 -187 56q-74 54 -71 176q3 161 98 229q93 66 254 102q64 15 93.5 22.5t64.5 21t51 28.5l10 60q7 56 -8 82t-66 26q-40 0 -61 -27t-21 -71q0 -19 4 -35
l-321 -45q-1 6 -3 19t-3.5 26t-1.5 25q6 141 124.5 225t338.5 84q255 0 329 -111q74 -109 47 -252l-69 -397q-6 -29 10 -46.5t47 -17.5q81 0 176 99q96 104 96 338q0 316 -208 469q-209 153 -494 153q-336 0 -537 -229q-202 -230 -202 -543q0 -346 217 -545
q217 -196 528 -196q134 0 254 44t207 124l78 -113q-237 -192 -549 -192q-411 0 -653 239q-244 244 -244 641t248 651q250 256 673 256q346 0 588 -196q244 -194 244 -561zM1010 559l28 156q-32 -25 -112 -51q-97 -38 -97 -150q-3 -74 72 -74q86 0 109 119z" />
    <glyph glyph-name="A" unicode="A" horiz-adv-x="1062" 
d="M436 469h131q-4 29 -12 88q-20 145 -23 178q-31 286 -36 381q-5 -135 -33 -385l-19 -176zM702 1575l365 -1575h-424l-43 233h-197l-41 -233h-358l313 1575h385z" />
    <glyph glyph-name="B" unicode="B" horiz-adv-x="1073" 
d="M1049 444q0 -241 -136 -344q-132 -100 -360 -100h-490v1573h506q226 0 325 -100.5t99 -307.5q0 -145 -63 -234t-178 -93q129 0 213 -104.5t84 -289.5zM625 475q0 137 -27.5 188.5t-87.5 51.5h-41v-439h45q64 0 87.5 41t23.5 158zM602 1137q0 95 -22.5 130.5t-69.5 35.5
h-41v-342h43q46 0 68 36.5t22 139.5z" />
    <glyph glyph-name="C" unicode="C" horiz-adv-x="1013" 
d="M987 440q0 -225 -123.5 -349t-339.5 -124q-234 0 -362 146q-125 146 -125 614q0 501 108 682q111 182 375 188q218 4 332.5 -100.5t114.5 -296.5q0 -106 -19 -246l-377 -8q17 139 17 201q2 80 -6.5 106.5t-42.5 26.5q-45 0 -60 -82q-14 -77 -14 -428q0 -295 12 -383
q15 -86 60 -86q41 0 53 39.5t12 151.5t-16 206l385 -4q16 -110 16 -254z" />
    <glyph glyph-name="D" unicode="D" horiz-adv-x="1087" 
d="M1051 752q0 -418 -136 -586q-135 -166 -356 -166h-496v1573h519q217 0 342 -180q127 -180 127 -641zM625 766q0 314 -21 399q-18 88 -82 88h-49v-903h47q61 0 82 80q23 87 23 336z" />
    <glyph glyph-name="E" unicode="E" horiz-adv-x="868" 
d="M854 307v-307h-791v1573h758v-299h-348v-311h305v-324h-305v-332h381z" />
    <glyph glyph-name="F" unicode="F" horiz-adv-x="821" 
d="M803 1573v-299h-330v-330h285v-315h-285v-629h-410v1573h740z" />
    <glyph glyph-name="G" unicode="G" horiz-adv-x="1046" 
d="M989 870v-882h-168l-67 84q-33 -41 -100.5 -70t-147.5 -29q-208 -3 -338 127q-131 131 -131 629q0 538 121 703q122 165 379 165q444 0 444 -411q0 -82 -29 -195l-374 -10q26 87 26 178q0 60 -11 90.5t-46 30.5q-55 0 -70 -84q-12 -82 -12 -453q0 -304 14 -370
q15 -72 70 -72t67 53q15 55 15 113q0 108 -8 160h-99v243h465z" />
    <glyph glyph-name="H" unicode="H" horiz-adv-x="1089" 
d="M473 0h-410v1573h410v-559h143v559h410v-1573h-410v688h-143v-688z" />
    <glyph glyph-name="I" unicode="I" horiz-adv-x="536" 
d="M473 1573v-1573h-410v1573h410z" />
    <glyph glyph-name="J" unicode="J" horiz-adv-x="983" 
d="M920 1573v-1131q0 -247 -113.5 -361t-368.5 -114q-228 0 -331 98t-103 302q0 128 33 223l369 20q-35 -87 -35 -211q0 -85 17 -115t52 -30q39 0 54.5 28t15.5 115v1176h410z" />
    <glyph glyph-name="K" unicode="K" horiz-adv-x="1140" 
d="M760 850l401 -850h-446l-242 582v-582h-410v1573h410v-533l246 533h407z" />
    <glyph glyph-name="L" unicode="L" horiz-adv-x="845" 
d="M829 307v-307h-766v1573h410v-1266h356z" />
    <glyph glyph-name="M" unicode="M" horiz-adv-x="1384" 
d="M1321 1573v-1573h-365v547q0 5 5 352l4 211l-131 -1110h-293l-146 1110q2 -68 6 -201q7 -233 7 -358v-551h-345v1573h488q12 -68 35 -205q41 -220 65 -375q17 -97 25 -196l12 -109q4 37 12 109l27 194l55 379l33 203h506z" />
    <glyph glyph-name="N" unicode="N" horiz-adv-x="1097" 
d="M1034 1573v-1573h-334q-31 82 -90 248l-118 334q-32 90 -70 252l12 -226q4 -94 4 -207v-401h-375v1573h367q27 -82 78 -244l104 -315q33 -91 58 -211q-11 212 -11 463v307h375z" />
    <glyph glyph-name="O" unicode="O" horiz-adv-x="1079" 
d="M37 795q0 464 133 635q135 169 367 169q230 0 368 -172q137 -168 137 -632q0 -493 -120 -660q-120 -164 -385 -164q-225 0 -365 158q-135 159 -135 666zM465 791q0 -343 14 -414q15 -76 62 -76q46 0 61 74q14 71 14 416q0 328 -14 405q-12 84 -63 84q-47 0 -62 -82
q-12 -80 -12 -407z" />
    <glyph glyph-name="P" unicode="P" horiz-adv-x="1032" 
d="M1014 1098q0 -280 -99 -413.5t-303 -133.5h-139v-551h-410v1573h521q219 0 324.5 -115t105.5 -360zM608 1094q0 120 -21 159t-75 39h-39v-458h47q55 0 71.5 52.5t16.5 207.5z" />
    <glyph glyph-name="Q" unicode="Q" horiz-adv-x="1079" 
d="M647 -23q-14 -35 -14 -69q0 -51 9.5 -69.5t31.5 -18.5q23 0 32 12.5t9 42.5q0 39 -6 62l243 -5q9 -35 9 -79q0 -99 -79.5 -162.5t-242.5 -63.5q-150 0 -223.5 61.5t-73.5 188.5q0 61 25 115q-154 47 -242 221q-88 175 -88 582q0 464 133 635q135 169 367 169
q230 0 368 -172q137 -168 137 -632q0 -434 -96 -615q-95 -176 -299 -203zM539 1280q-47 0 -62 -82q-12 -80 -12 -407q0 -343 14 -414q15 -76 62 -76q46 0 61 74q14 71 14 416q0 328 -14 405q-12 84 -63 84z" />
    <glyph glyph-name="R" unicode="R" horiz-adv-x="1069" 
d="M1071 0h-440q-37 109 -37 287v149q0 101 -19.5 137.5t-74.5 36.5h-27v-610h-410v1573h560q190 0 297.5 -97t107.5 -302q0 -182 -65.5 -264t-217.5 -103q155 -9 201 -119t49 -295q0 -106 21 -229q21 -121 55 -164zM604 1120q0 97 -18.5 140t-77.5 43h-35v-381h57
q43 0 58.5 40.5t15.5 157.5z" />
    <glyph glyph-name="S" unicode="S" horiz-adv-x="1015" 
d="M981 412q0 -217 -121.5 -331t-357.5 -114q-200 0 -328 88q-127 89 -127 320q0 100 27 196l372 11q-14 -103 -14 -195q0 -61 14.5 -89t55.5 -28q34 0 46.5 24.5t12.5 70.5q0 140 -41 196q-39 56 -145 115l-94 51q-127 68 -179.5 183t-52.5 280q0 198 120 302.5t331 104.5
q204 0 321 -91.5t117 -260.5q0 -74 -20 -147l-365 -25q14 72 14 156q0 50 -10.5 73t-48.5 23q-33 0 -45 -21.5t-12 -62.5q0 -109 41 -156q36 -42 110 -84l109 -61q153 -87 211 -203q59 -115 59 -325z" />
    <glyph glyph-name="T" unicode="T" horiz-adv-x="962" 
d="M942 1573v-299h-256v-1274h-414v1274h-252v299h922z" />
    <glyph glyph-name="U" unicode="U" horiz-adv-x="1089" 
d="M1026 1573v-1247q0 -155 -113 -256q-115 -103 -364 -103q-242 0 -364 95t-122 266v1245h410v-1159q0 -73 13.5 -101t58.5 -28q43 0 57 27.5t14 101.5v1159h410z" />
    <glyph glyph-name="V" unicode="V" horiz-adv-x="1050" 
d="M680 1573h391l-362 -1583h-385l-340 1583h424l49 -320q25 -145 63 -415l12 -136l7 -75q2 24 4 75q7 92 14 136l68 415z" />
    <glyph glyph-name="W" unicode="W" horiz-adv-x="1411" 
d="M1055 1573h352l-260 -1573h-336q-9 55 -23 164l-40 297q-15 105 -26.5 202t-15.5 142l-4 45q-6 -151 -45 -389q-2 -13 -19 -122.5t-28 -174.5l-24 -164h-357l-225 1573h381q7 -66 21 -195l36 -350q10 -87 13 -227l4 -152l6 150q10 163 20 231q72 451 84 543h285
q34 -262 76 -545q14 -116 22 -240l11 -139q2 47 4 139q6 141 18 240l45 352z" />
    <glyph glyph-name="X" unicode="X" horiz-adv-x="976" 
d="M709 844l307 -844h-410l-131 403l-131 -403h-360l299 801l-271 772h398l110 -342l117 342h344z" />
    <glyph glyph-name="Y" unicode="Y" horiz-adv-x="1017" 
d="M694 1573h355l-338 -963v-610h-410v610l-332 963h424l148 -520z" />
    <glyph glyph-name="Z" unicode="Z" horiz-adv-x="890" 
d="M858 307v-307h-852v240l424 1034h-360v299h788v-252l-403 -1014h403z" />
    <glyph glyph-name="bracketleft" unicode="[" horiz-adv-x="671" 
d="M616 -100v-232h-544v1905h544v-234h-180v-1439h180z" />
    <glyph glyph-name="backslash" unicode="\" horiz-adv-x="819" 
d="M242 1573l577 -1589h-241l-580 1589h244z" />
    <glyph glyph-name="bracketright" unicode="]" horiz-adv-x="651" 
d="M580 -332h-545v232h180v1439h-180v234h545v-1905z" />
    <glyph glyph-name="asciicircum" unicode="^" horiz-adv-x="884" 
d="M594 1577l211 -377h-246l-115 150l-118 -150h-244l209 377h303z" />
    <glyph glyph-name="underscore" unicode="_" horiz-adv-x="1062" 
d="M1063 -168v-252h-1063v252h1063z" />
    <glyph glyph-name="grave" unicode="`" 
d="M543 1550l104 -270h-229l-246 270h371z" />
    <glyph glyph-name="a" unicode="a" horiz-adv-x="1021" 
d="M1018 233l4 -202q-95 -51 -238 -51q-80 0 -134 39t-72 102q-63 -146 -246 -146q-137 0 -220 83t-83 253q0 174 80 254q81 81 301 146q65 19 67 20q70 25 70 121q0 123 -66 123q-31 0 -46 -22.5t-15 -75.5q0 -39 14 -76l-328 -29q-30 65 -30 162q0 297 422 297
q200 0 315 -68t115 -256v-626q0 -29 14 -42.5t35 -13.5q17 0 41 8zM545 305v242q-43 -22 -53 -25q-40 -19 -58 -59t-18 -129q0 -107 67 -107q29 0 45.5 23t16.5 55z" />
    <glyph glyph-name="b" unicode="b" horiz-adv-x="1009" 
d="M971 594q0 -381 -101 -500q-98 -119 -243 -119q-88 0 -146 36.5t-84 97.5l-49 -109h-289v1573h383v-479q25 52 80 89.5t123 37.5q147 0 236 -121q90 -122 90 -506zM578 590q0 233 -19 295q-15 61 -55 61q-43 0 -58 -63q-16 -69 -16 -293q0 -200 16 -266q15 -60 56 -60
q34 0 55 58t21 268z" />
    <glyph glyph-name="c" unicode="c" horiz-adv-x="946" 
d="M922 352q-4 -189 -110 -284t-304 -95q-225 0 -352 133q-123 132 -123 490q0 375 137 506t334 131q194 0 293.5 -101.5t101.5 -285.5q0 -67 -10 -119l-338 -10q10 27 10 96q0 76 -13.5 108.5t-47.5 32.5q-43 0 -58 -61q-14 -55 -14 -309q0 -209 16 -271q15 -57 66 -57
q82 0 82 162q0 62 -10 117l319 -9q23 -117 21 -174z" />
    <glyph glyph-name="d" unicode="d" horiz-adv-x="1009" 
d="M950 1573v-1573h-338l-12 111q-32 -59 -88 -97.5t-131 -38.5q-146 0 -244 119t-98 502q0 388 100 512q101 125 242 125q69 0 116.5 -35.5t69.5 -85.5v461h383zM432 590q0 -210 21 -268t55 -58q40 0 55 60q17 70 17 266q0 220 -17 293q-15 63 -57 63q-37 0 -55 -61
q-19 -62 -19 -295z" />
    <glyph glyph-name="e" unicode="e" horiz-adv-x="970" 
d="M942 319q0 -165 -104.5 -255.5t-319.5 -90.5q-198 0 -342 111q-143 110 -143 512q0 357 129 498t346 141q211 0 313.5 -128t108.5 -405q0 -64 -15 -192h-493q2 -137 21 -196.5t73 -59.5q84 0 84 123q0 21 -6 69l338 -12q10 -52 10 -115zM571 774q-1 106 -17 145t-54 39
q-45 0 -60 -49q-15 -46 -18 -198h147q0 8 1 31t1 32z" />
    <glyph glyph-name="f" unicode="f" horiz-adv-x="661" 
d="M829 1364q0 -25 -2 -43t-5 -32t-3 -15l-268 -29q6 10 6 53q0 48 -10 71.5t-37 23.5q-45 0 -45 -72q0 -28 10 -70.5t12 -58.5h195v-246h-174v-946h-383v946h-121v246h121q0 1 -0.5 7.5t-1.5 20.5t-2 29q-2 37 -2 72q0 160 112 229q113 70 271 70q148 0 237.5 -63.5
t89.5 -192.5z" />
    <glyph glyph-name="g" unicode="g" horiz-adv-x="1003" 
d="M768 1358h305l-205 -281q86 -95 86 -260q0 -207 -125 -305q-125 -96 -303 -96q-75 0 -153 16q-18 -6 -30.5 -21t-12.5 -32q0 -31 25.5 -41t99.5 -10q2 0 13.5 0.5t35 1.5t47.5 2t49.5 2t38.5 1.5t18 0.5q181 6 276 -93.5t95 -271.5q0 -173 -137 -271.5t-387 -98.5
q-264 0 -389.5 63t-124.5 203q1 75 60 118.5t145 57.5q-84 23 -127 79.5t-43 133.5q0 83 53.5 139t157.5 94q-75 43 -124 125.5t-49 202.5q0 197 120.5 305.5t322.5 108.5q64 0 126.5 -13t98.5 -32zM686 -84q0 117 -151 109q-52 0 -99 -2q-58 -2 -98 2q-66 -48 -66 -111
q0 -111 205 -111q111 0 160 26t49 87zM580 819q0 125 -15 167t-57 42q-38 0 -55 -44.5t-17 -164.5q0 -118 17 -160.5t55 -42.5t55 41t17 162z" />
    <glyph glyph-name="h" unicode="h" horiz-adv-x="1019" 
d="M967 952v-952h-385v850q0 39 -17 58.5t-45 19.5q-34 0 -56 -25.5t-22 -81.5v-821h-383v1573h383v-520q21 52 93 114q69 60 167 60q134 0 199.5 -66.5t65.5 -208.5z" />
    <glyph glyph-name="i" unicode="i" horiz-adv-x="501" 
d="M442 1192v-1192h-383v1192h383zM442 1573v-301h-383v301h383z" />
    <glyph glyph-name="j" unicode="j" horiz-adv-x="516" 
d="M74 29v1163h385v-1251q0 -156 -107 -248t-289 -92t-269 62t-87 185q0 48 17 101l284 16q-8 -21 -8 -53q0 -39 8 -55.5t35 -16.5q45 0 45 68q0 23 -7 59t-7 62zM459 1573v-301h-385v301h385z" />
    <glyph glyph-name="k" unicode="k" horiz-adv-x="1050" 
d="M745 707l332 -707h-420l-178 428l-37 -37v-391h-383v1573h383v-711l199 328h393z" />
    <glyph glyph-name="l" unicode="l" horiz-adv-x="501" 
d="M442 1573v-1573h-383v1573h383z" />
    <glyph glyph-name="m" unicode="m" horiz-adv-x="1523" 
d="M1470 956v-956h-385v844q0 84 -61 84q-32 0 -51 -29t-19 -84v-815h-381v844q0 46 -15 65t-46 19t-50.5 -29t-19.5 -84v-815h-383v1192h377v-145q38 74 103 125t155 51q137 0 189 -70q52 -67 55 -102q37 72 105 122t159 50q126 0 197 -75t71 -192z" />
    <glyph glyph-name="n" unicode="n" horiz-adv-x="1019" 
d="M442 0h-383v1192h377v-154q29 68 96 127q71 62 170 62q136 0 200.5 -66t64.5 -213v-948h-385v850q0 39 -17 58.5t-45 19.5q-34 0 -56 -25.5t-22 -81.5v-821z" />
    <glyph glyph-name="o" unicode="o" horiz-adv-x="995" 
d="M33 588q0 352 127 497q130 148 336 148q212 0 340 -146q127 -145 127 -499q0 -338 -119 -475q-122 -140 -346 -140q-465 0 -465 615zM428 592q0 -222 14 -277q15 -59 56 -59q40 0 55 57q16 62 16 279q0 246 -16 305q-15 57 -55 57q-41 0 -56 -63q-14 -60 -14 -299z" />
    <glyph glyph-name="p" unicode="p" horiz-adv-x="1009" 
d="M971 575q0 -361 -99 -481q-98 -119 -235 -119q-68 0 -119 41.5t-76 92.5v-476h-383v1559h377v-117q29 60 83.5 103t129.5 43q143 0 232 -123q90 -122 90 -523zM578 590q0 233 -19 295q-15 61 -55 61q-43 0 -58 -63q-16 -69 -16 -293q0 -200 16 -266q15 -60 56 -60
q34 0 55 58t21 268z" />
    <glyph glyph-name="q" unicode="q" horiz-adv-x="1009" 
d="M950 1200v-1567h-383v471q-26 -55 -77.5 -92t-120.5 -37q-142 0 -236 119t-94 500q0 390 108 510q110 119 256 119q167 0 246 -154l72 131h229zM432 590q0 -210 21 -268t55 -58q40 0 55 60q17 70 17 266q0 220 -17 293q-15 63 -57 63q-37 0 -55 -61q-19 -62 -19 -295z
" />
    <glyph glyph-name="r" unicode="r" horiz-adv-x="909" 
d="M905 930q0 -152 -35 -252l-319 -16q22 77 22 151q0 62 -12.5 88.5t-42.5 26.5q-44 4 -60 -35t-16 -145v-748h-383v1192h377v-154q20 69 84 129q66 60 144 60q241 0 241 -297z" />
    <glyph glyph-name="s" unicode="s" horiz-adv-x="944" 
d="M920 348q0 -179 -117 -276t-336 -97q-194 0 -310.5 77.5t-117.5 221.5q0 70 14 125l312 21q-13 -50 -13 -94q0 -109 97 -109q46 0 67 25.5t21 60.5q0 77 -37.5 120t-122.5 75q-17 7 -43.5 15.5t-42.5 14.5q-127 45 -184 128.5t-56 234.5q0 158 119.5 249t314.5 91
q172 0 287 -74q116 -75 119 -223q3 -60 -4 -80l-312 -27q6 41 3 76q-11 90 -89 90q-39 0 -57 -19.5t-18 -47.5q0 -45 26 -75.5t99 -53.5q7 -2 41 -15.5t51 -19.5q157 -62 223 -159t66 -255z" />
    <glyph glyph-name="t" unicode="t" horiz-adv-x="724" 
d="M702 244l15 -191q-33 -24 -106.5 -50t-164.5 -26q-325 0 -325 265l4 704h-123v246h127l2 315h377v-315h188v-246h-188v-616q0 -111 84 -111q42 0 110 25z" />
    <glyph glyph-name="u" unicode="u" horiz-adv-x="1019" 
d="M958 1192v-1192h-376v143q-19 -52 -90 -114q-68 -56 -168 -56q-273 0 -273 285v934h385v-852q0 -39 18 -57.5t46 -18.5q32 0 53.5 26.5t21.5 80.5v821h383z" />
    <glyph glyph-name="v" unicode="v" horiz-adv-x="962" 
d="M614 1192h357l-289 -1192h-397l-281 1192h395q11 -66 31 -199q23 -135 57 -358q6 -34 10.5 -75.5t5.5 -65.5l1 -25q6 92 16 168l60 356z" />
    <glyph glyph-name="w" unicode="w" horiz-adv-x="1404" 
d="M1038 1192h365l-252 -1192h-360l-89 600l-102 -600h-356l-248 1192h385l92 -676l102 676h269l88 -676z" />
    <glyph glyph-name="x" unicode="x" horiz-adv-x="946" 
d="M674 625l280 -625h-385l-112 313l-123 -313h-342l272 633l-254 559h381l86 -246l94 246h351z" />
    <glyph glyph-name="y" unicode="y" horiz-adv-x="980" 
d="M618 1192h357l-295 -1225q-94 -385 -424 -385q-342 -3 -342 250q0 44 14 98l295 23q-10 -17 -10 -72q0 -12 1.5 -19.5t5.5 -15.5t13 -12t23 -4q22 0 33 18t24 66q0 3 3.5 21t5 33.5t0.5 25.5l-332 1198h397l121 -664z" />
    <glyph glyph-name="z" unicode="z" horiz-adv-x="851" 
d="M815 266v-266h-780v231l371 701h-330v260h745v-260l-360 -666h354z" />
    <glyph glyph-name="braceleft" unicode="{" horiz-adv-x="751" 
d="M709 1573v-244h-91q-38 0 -55.5 -14t-17.5 -49v-523q0 -110 -101 -110h-28v-15h28q101 0 101 -114v-559q0 -36 16.5 -50t52.5 -14h93v-243h-226q-112 0 -194 49q-82 46 -82 172v553q0 55 -28.5 81.5t-90.5 26.5h-29v207h27q65 0 93 27t28 84v514q0 221 274 221h230z" />
    <glyph glyph-name="bar" unicode="|" horiz-adv-x="534" 
d="M397 1634v-2044h-270v2044h270z" />
    <glyph glyph-name="braceright" unicode="}" horiz-adv-x="751" 
d="M135 1329h-90v244h227q129 0 202 -53.5t73 -167.5v-514q0 -57 28 -84t93 -27h28v-207h-30q-62 0 -90.5 -26.5t-28.5 -81.5v-553q0 -126 -82 -172q-82 -49 -195 -49h-223v243h90q37 0 54.5 14.5t17.5 49.5v559q0 114 98 114h29v15h-29q-98 0 -98 110v523q0 35 -17.5 49
t-56.5 14z" />
    <glyph glyph-name="asciitilde" unicode="~" horiz-adv-x="876" 
d="M807 1442q0 -96 -55 -156.5t-162 -60.5t-178 71q-71 74 -125 74q-57 0 -60 -43q-3 -41 0 -65h-133q-4 4 -9 19t-10 42.5t-5 56.5q0 97 51 155t151 58q128 0 193 -71q66 -72 121 -72q54 0 57 45q7 51 4 72h131q4 -4 10.5 -20.5t12.5 -46t6 -58.5z" />
    <glyph glyph-name="nbspace" unicode="&#xa0;" horiz-adv-x="247" 
 />
    <glyph glyph-name="exclamdown" unicode="&#xa1;" horiz-adv-x="538" 
d="M74 2v580l71 508h250l70 -508v-580h-391zM88 1212v363h365v-363h-365z" />
    <glyph glyph-name="cent" unicode="&#xa2;" horiz-adv-x="972" 
d="M928 612q0 -170 -97 -258q-98 -85 -231 -94v-158h-194v158q-158 12 -252 141q-97 132 -97 441q0 323 103 444q104 119 246 131v156h194v-158q139 -12 219.5 -99.5t81.5 -238.5q0 -67 -10 -112l-336 -13q0 5 5 35.5t5 59.5q0 73 -13.5 101t-45.5 28q-45 0 -60 -64
q-12 -64 -12 -285q0 -200 17 -266q18 -55 65 -55q80 0 80 160q0 55 -8 118l319 -8q21 -87 21 -164z" />
    <glyph glyph-name="sterling" unicode="&#xa3;" horiz-adv-x="1300" 
d="M1282 303q0 -127 -80 -227q-76 -99 -274 -99q-137 0 -211 39q-64 34 -146 95q-38 -54 -110 -94t-178 -40q-138 0 -206.5 60.5t-68.5 171.5q0 128 98 180q101 55 201 55q79 0 137 -28q0 40 -12 92q-4 25 -11 45.5t-16.5 45t-13.5 36.5h-278v231h211q-50 154 -50 267
q0 208 131 332t371 124q266 0 357 -114q94 -113 94 -285q0 -102 -39 -195l-359 -10q23 98 23 186q0 68 -18 102t-60 34q-55 0 -73.5 -37.5t-18.5 -104.5q0 -101 47 -299h303v-231h-268q10 -39 10 -109q0 -117 -51 -194q33 -17 47.5 -24t41 -15t52.5 -8q53 0 81 33t28 85
q0 55 -19 111l291 -20q23 -48 30 -87t7 -104zM377 203q-43 30 -84 30q-70 0 -70 -49q0 -19 16 -31t46 -12t55 16.5t37 45.5z" />
    <glyph glyph-name="yen" unicode="&#xa5;" horiz-adv-x="1101" 
d="M764 1571h381l-215 -570h149v-217h-235q-10 -26 -33 -77l-31 -78h299v-217h-315v-412h-410v412h-331v217h313l-62 155h-251v217h167l-213 570h451l168 -578z" />
    <glyph glyph-name="brokenbar" unicode="&#xa6;" horiz-adv-x="534" 
d="M397 -410h-270v996h270v-996zM397 723h-270v911h270v-911z" />
    <glyph glyph-name="section" unicode="&#xa7;" horiz-adv-x="964" 
d="M911 774q-3 -117 -59 -184q-61 -70 -102 -94q45 -36 96 -109q51 -68 51 -186q-1 -170 -112 -258t-322 -88q-210 0 -307 75t-97 207q0 39 11 111l299 20q-12 -70 -9 -108q9 -111 99 -111q45 0 62.5 26t17.5 79q0 77 -36 120.5t-124 79.5q-48 22 -76 31q-59 23 -99.5 47.5
t-75 60t-51 85t-16.5 114.5q0 112 68 180q73 70 123 93q-76 39 -124 115.5t-48 191.5q0 136 106 229q110 96 310 96q198 0 295.5 -79.5t97.5 -221.5q0 -48 -10 -61l-297 -23q10 38 10 93q0 86 -84 86q-38 0 -59 -23.5t-21 -64.5q0 -54 29.5 -87.5t89.5 -58.5q18 -5 52 -19.5
t42 -15.5q132 -45 201.5 -126t68.5 -222zM594 715q0 33 -16.5 63t-45.5 47q-20 13 -50 27t-36 18q-59 -42 -59 -118q0 -39 23 -72.5t63 -50.5q59 -25 82 -33q39 66 39 119z" />
    <glyph glyph-name="dieresis" unicode="&#xa8;" 
d="M391 1530v-248h-260v248h260zM801 1530v-248h-260v248h260z" />
    <glyph glyph-name="copyright" unicode="&#xa9;" horiz-adv-x="1499" 
d="M1051 813q0 -136 -70 -206t-229 -70q-176 0 -252 98q-78 101 -78 350q0 245 82 336q82 94 248 94q277 0 280 -254q0 -52 -12 -84l-227 -8q6 16 6 78q0 96 -56 96q-36 0 -51 -45q-14 -43 -14 -223q0 -167 16 -217q15 -45 62 -45q35 0 48 25t13 87q0 55 -12 107l233 -6
q0 -2 6.5 -45.5t6.5 -67.5zM1415 971q0 -271 -194 -465q-194 -191 -476 -191q-285 0 -473 191t-188 465q0 272 188 463q189 192 473 192t476 -192q194 -191 194 -463zM1294 971q0 224 -149 379t-400 155q-244 0 -393 -155t-149 -379t145 -381q147 -156 397 -156
q255 0 402 156t147 381z" />
    <glyph glyph-name="ordfeminine" unicode="&#xaa;" horiz-adv-x="927" 
d="M846 936v-135q-72 -35 -174 -35q-60 0 -107.5 23.5t-58.5 56.5q-45 -84 -178 -84q-101 0 -168.5 55.5t-67.5 169.5q0 120 70 172q69 51 233 98q64 18 88 37v68q0 41 -10.5 60.5t-38.5 19.5q-24 0 -34.5 -14.5t-10.5 -49.5q0 -48 12 -63l-249 -21q-27 48 -27 107
q0 93 84.5 147t236.5 54q77 0 134.5 -10.5t102.5 -35.5t68 -68.5t23 -105.5v-415q0 -37 35 -37q4 0 13 1.5t16 3t8 1.5zM481 971v172l-43 -19q-27 -12 -41 -38t-14 -82q0 -50 14.5 -68t38.5 -18q45 0 45 53zM866 690v-160h-794v160h794z" />
    <glyph glyph-name="guillemotleft" unicode="&#xab;" horiz-adv-x="1026" 
d="M494 422v-371l-431 342v391l431 338v-370l-211 -164zM967 422v-371l-428 342v391l428 338v-370l-209 -164z" />
    <glyph glyph-name="registered" unicode="&#xae;" horiz-adv-x="1499" 
d="M1036 1149q0 -87 -43.5 -135t-136.5 -58q83 -6 115.5 -71t40.5 -213q3 -67 24 -105h-229q-16 27 -19 90q-3 49 -7 91.5t-5 60.5q-2 38 -11 56t-32 18h-28v-316h-220v830h328q116 0 169.5 -62t53.5 -186zM1415 971q0 -271 -194 -465q-194 -191 -476 -191q-285 0 -473 191
t-188 465q0 272 188 463q189 192 473 192t476 -192q194 -191 194 -463zM1294 971q0 224 -149 379t-400 155q-244 0 -393 -155t-149 -379t145 -381q147 -156 397 -156q255 0 402 156t147 381zM811 1151q0 71 -19 95t-61 24h-26v-248h30q36 0 56 27.5t20 101.5z" />
    <glyph glyph-name="macron" unicode="&#xaf;" 
d="M774 1505v-194h-616v194h616z" />
    <glyph glyph-name="macron" unicode="&#x2c9;" 
d="M774 1505v-194h-616v194h616z" />
    <glyph glyph-name="degree" unicode="&#xb0;" horiz-adv-x="737" 
d="M662 1290q0 -118 -87 -205q-87 -84 -206 -84q-120 0 -207 84q-86 86 -86 205q0 120 86 203q86 86 207 86q120 0 206 -86q87 -84 87 -203zM481 1290q0 48 -32.5 81.5t-79.5 33.5t-80 -34t-33 -81t33 -80.5t80 -33.5t79.5 33.5t32.5 80.5z" />
    <glyph glyph-name="twosuperior" unicode="&#xb2;" horiz-adv-x="720" 
d="M692 553h-655l-4 176q31 35 108 114.5t115 123.5q141 162 141 305q0 63 -10.5 86.5t-42.5 23.5q-28 0 -38.5 -26t-10.5 -90q0 -87 18 -142l-262 -12q-31 104 -31 199q0 134 91 206t247 72q161 0 247.5 -74.5t86.5 -216.5q0 -190 -162 -370q-82 -85 -157 -140q45 3 76 3
q47 2 155 2l88 2v-242z" />
    <glyph glyph-name="threesuperior" unicode="&#xb3;" horiz-adv-x="720" 
d="M340 539q-148 0 -223.5 65.5t-77.5 179.5q0 92 16 154l260 8q-14 -54 -14 -104q0 -49 11 -69.5t36 -20.5q29 0 39 26.5t10 100.5q0 79 -21 105t-77 26h-109v182h109q47 0 61.5 17.5t14.5 86.5q0 56 -7 73t-30 17q-22 0 -29.5 -15.5t-7.5 -55.5t10 -70l-256 6
q-14 37 -14 107q0 101 82 166t221 65q157 0 232 -66t75 -200q0 -89 -43 -147t-121 -68q90 -5 144.5 -73.5t54.5 -194.5q0 -174 -98 -238q-92 -63 -248 -63z" />
    <glyph glyph-name="acute" unicode="&#xb4;" 
d="M426 1550h342l-229 -270h-217z" />
    <glyph glyph-name="paragraph" unicode="&#xb6;" horiz-adv-x="1236" 
d="M1139 1573v-1608h-199v1454h-88v-1454h-199v588q-2 1 -18 1.5t-36 2t-32 4.5q-210 24 -364 137q-154 115 -154 367q0 272 146 391q144 117 362 117h582zM653 707v712q-81 0 -118 -76q-37 -73 -37 -280q0 -215 41 -277q43 -58 114 -79z" />
    <glyph glyph-name="periodcentered" unicode="&#xb7;" horiz-adv-x="632" 
d="M539 825q0 -96 -64.5 -162.5t-157.5 -66.5q-94 0 -157.5 66t-63.5 163q0 98 64 165t157 67q91 0 156 -68q66 -69 66 -164z" />
    <glyph glyph-name="periodcentered" unicode="&#x2219;" horiz-adv-x="632" 
d="M539 825q0 -96 -64.5 -162.5t-157.5 -66.5q-94 0 -157.5 66t-63.5 163q0 98 64 165t157 67q91 0 156 -68q66 -69 66 -164z" />
    <glyph glyph-name="cedilla" unicode="&#xb8;" 
d="M729 -225q0 -103 -72.5 -160t-203.5 -57q-205 0 -293 77l67 125q32 -25 87.5 -40t115.5 -15q80 0 80 53q0 56 -70 56q-44 0 -82 -15l37 158h88q119 0 182.5 -51.5t63.5 -130.5z" />
    <glyph glyph-name="onesuperior" unicode="&#xb9;" horiz-adv-x="559" 
d="M446 1585v-1032h-286v729h-158v178q102 11 162 43q66 35 90 82h192z" />
    <glyph glyph-name="ordmasculine" unicode="&#xba;" horiz-adv-x="925" 
d="M842 1169q0 -213 -91.5 -310t-287.5 -97q-189 0 -285 98t-96 309q0 219 94 324.5t287 105.5q191 0 285 -105.5t94 -324.5zM526 1171q0 173 -14 211q-15 43 -49 43q-36 0 -51 -43q-13 -47 -13 -211q0 -148 13 -192q15 -41 51 -41q34 0 49 41q14 38 14 192zM827 690v-160
h-733v160h733z" />
    <glyph glyph-name="guillemotright" unicode="&#xbb;" horiz-adv-x="1026" 
d="M498 387l-435 -340v375l211 162l-211 166v372l435 -342v-393zM975 387l-432 -340v375l207 162l-207 166v372l432 -342v-393z" />
    <glyph glyph-name="onequarter" unicode="&#xbc;" horiz-adv-x="1722" 
d="M446 553h-286v729q-49 -2 -80 -2l-78 2v178q81 8 156 41q74 36 96 84h192v-1032zM1579 0h-272v174h-363v252l340 600h295v-643h94v-209h-94v-174zM1270 588l-111 -205h150v203l2 80zM401 -20h-241l1052 1626h240z" />
    <glyph glyph-name="onehalf" unicode="&#xbd;" horiz-adv-x="1781" 
d="M1733 0h-656l-4 176q31 35 108 114.5t115 123.5q142 163 142 305q0 62 -11.5 86t-42.5 24q-28 0 -38.5 -26t-10.5 -90q0 -84 19 -142l-262 -12q-31 104 -31 199q0 134 90.5 206t247.5 72q161 0 247.5 -74.5t86.5 -216.5q0 -193 -162 -370q-53 -56 -158 -139q55 2 88 2
q47 2 150 2l82 2v-242zM446 1585v-1032h-286v729h-158v178q102 11 162 43q66 35 90 82h192zM401 -20h-241l1052 1626h240z" />
    <glyph glyph-name="threequarters" unicode="&#xbe;" horiz-adv-x="1878" 
d="M346 539q-148 0 -224.5 65.5t-76.5 179.5q-2 83 16 154l261 8q-15 -58 -15 -104q0 -49 11 -69.5t36 -20.5q29 0 39 26.5t10 100.5q0 79 -21 105t-77 26h-108v182h108q47 0 61.5 17.5t14.5 86.5q0 56 -7 73t-30 17q-22 0 -29.5 -15.5t-7.5 -55.5t10 -70l-256 6
q-14 37 -14 107q0 101 82 166t221 65q157 0 232 -66t75 -200q0 -89 -42.5 -147t-120.5 -68q90 -5 144 -73.5t54 -194.5q0 -174 -98 -238q-92 -63 -248 -63zM1776 0h-273v174h-362v252l340 600h295v-643h94v-209h-94v-174zM1425 514l-69 -131h149v104l2 177v2zM598 -20h-242
l1053 1626h240z" />
    <glyph glyph-name="questiondown" unicode="&#xbf;" horiz-adv-x="958" 
d="M37 496q0 279 106 366q110 90 240 90q63 0 107.5 -21.5t66.5 -56.5v218h279v-525h-277q-6 55 -23.5 80t-52.5 25q-36 0 -48.5 -38.5t-12.5 -137.5q0 -152 18 -201t74 -49q70 0 70 98q0 54 -23 105l342 2q33 -64 33 -162q0 -145 -112 -229.5t-326 -84.5q-197 0 -330 109
q-131 107 -131 412zM506 1212v363h364v-363h-364z" />
    <glyph glyph-name="Agrave" unicode="&#xc0;" horiz-adv-x="1062" 
d="M436 469h131q-4 29 -12 88q-20 145 -23 178q-31 286 -36 381q-5 -135 -33 -385l-19 -176zM702 1575l365 -1575h-424l-43 233h-197l-41 -233h-358l313 1575h385zM567 1909l105 -271h-230l-245 271h370z" />
    <glyph glyph-name="Aacute" unicode="&#xc1;" horiz-adv-x="1062" 
d="M436 469h131q-4 29 -12 88q-20 145 -23 178q-31 286 -36 381q-5 -135 -33 -385l-19 -176zM702 1575l365 -1575h-424l-43 233h-197l-41 -233h-358l313 1575h385zM498 1907h342l-230 -271h-217z" />
    <glyph glyph-name="Acircumflex" unicode="&#xc2;" horiz-adv-x="1062" 
d="M436 469h131q-4 29 -12 88q-20 145 -23 178q-31 286 -36 381q-5 -135 -33 -385l-19 -176zM702 1575l365 -1575h-424l-43 233h-197l-41 -233h-358l313 1575h385zM676 1892l205 -258h-254l-113 107l-108 -107h-259l209 258h320z" />
    <glyph glyph-name="Atilde" unicode="&#xc3;" horiz-adv-x="1062" 
d="M436 469h131q-4 29 -12 88q-20 145 -23 178q-31 286 -36 381q-5 -135 -33 -385l-19 -176zM702 1575l365 -1575h-424l-43 233h-197l-41 -233h-358l313 1575h385zM834 1774q-5 -60 -52.5 -104t-142.5 -44q-91 0 -150 47q-55 49 -116 49q-51 0 -51 -45v-30h-119
q-21 42 -21 96q0 65 43.5 114.5t130.5 49.5q108 0 166 -52q58 -49 117 -49q52 0 57 52q0 8 -2 18t-2 12h119q26 -59 23 -114z" />
    <glyph glyph-name="Adieresis" unicode="&#xc4;" horiz-adv-x="1062" 
d="M436 469h131q-4 29 -12 88q-20 145 -23 178q-31 286 -36 381q-5 -135 -33 -385l-19 -176zM702 1575l365 -1575h-424l-43 233h-197l-41 -233h-358l313 1575h385zM446 1882v-248h-260v248h260zM856 1882v-248h-260v248h260z" />
    <glyph glyph-name="Aring" unicode="&#xc5;" horiz-adv-x="1062" 
d="M705 1571l362 -1571h-424l-43 233h-197l-41 -233h-358l313 1571q-49 65 -49 143q0 96 72 168q70 70 170 70q102 0 172 -70q72 -72 72 -168q0 -81 -49 -143zM436 469h131q-4 29 -12 88q-20 145 -23 178q-31 286 -36 381q-5 -135 -33 -385l-19 -176zM618 1714
q0 44 -32 75.5t-76 31.5q-43 0 -75 -31.5t-32 -75.5q0 -42 32 -73t75 -31q44 0 76 30.5t32 73.5z" />
    <glyph glyph-name="AE" unicode="&#xc6;" horiz-adv-x="1519" 
d="M512 1573h961v-299h-349v-311h306v-324h-306v-332h381v-307h-790v233h-256l-74 -233h-401zM541 469h174v786q-10 -57 -33 -174q-28 -164 -68 -325q-26 -110 -47 -189z" />
    <glyph glyph-name="Ccedilla" unicode="&#xc7;" horiz-adv-x="1013" 
d="M987 440q0 -225 -123.5 -349t-339.5 -124q-234 0 -362 146q-125 146 -125 614q0 501 108 682q111 182 375 188q218 4 332.5 -100.5t114.5 -296.5q0 -106 -19 -246l-377 -8q17 139 17 201q2 80 -6.5 106.5t-42.5 26.5q-45 0 -60 -82q-14 -77 -14 -428q0 -295 12 -383
q15 -86 60 -86q41 0 53 39.5t12 151.5t-16 206l385 -4q16 -110 16 -254zM782 -229q0 -103 -72.5 -160t-203.5 -57q-205 0 -293 77l68 125q32 -25 87 -40t115 -15q80 0 80 53q0 56 -69 56q-44 0 -82 -15l37 158h88q119 0 182 -51.5t63 -130.5z" />
    <glyph glyph-name="Egrave" unicode="&#xc8;" horiz-adv-x="868" 
d="M854 307v-307h-791v1573h758v-299h-348v-311h305v-324h-305v-332h381zM551 1909l104 -271h-229l-246 271h371z" />
    <glyph glyph-name="Eacute" unicode="&#xc9;" horiz-adv-x="868" 
d="M854 307v-307h-791v1573h758v-299h-348v-311h305v-324h-305v-332h381zM436 1905h342l-229 -271h-217z" />
    <glyph glyph-name="Ecircumflex" unicode="&#xca;" horiz-adv-x="868" 
d="M854 307v-307h-791v1573h758v-299h-348v-311h305v-324h-305v-332h381zM625 1892l204 -258h-254l-112 107l-109 -107h-258l209 258h320z" />
    <glyph glyph-name="Edieresis" unicode="&#xcb;" horiz-adv-x="868" 
d="M854 307v-307h-791v1573h758v-299h-348v-311h305v-324h-305v-332h381zM365 1896v-247h-261v247h261zM774 1896v-247h-260v247h260z" />
    <glyph glyph-name="Igrave" unicode="&#xcc;" horiz-adv-x="536" 
d="M473 1573v-1573h-410v1573h410zM303 1909l105 -271h-230l-246 271h371z" />
    <glyph glyph-name="Iacute" unicode="&#xcd;" horiz-adv-x="536" 
d="M473 1573v-1573h-410v1573h410zM252 1909h342l-229 -271h-218z" />
    <glyph glyph-name="Icircumflex" unicode="&#xce;" horiz-adv-x="536" 
d="M473 1573v-1573h-410v1573h410zM434 1892l205 -258h-254l-113 107l-108 -107h-258l209 258h319z" />
    <glyph glyph-name="Idieresis" unicode="&#xcf;" horiz-adv-x="536" 
d="M473 1573v-1573h-410v1573h410zM193 1896v-247h-261v247h261zM602 1896v-247h-260v247h260z" />
    <glyph glyph-name="Eth" unicode="&#xd0;" horiz-adv-x="1107" 
d="M84 0v653h-64v287h64v633h518q217 0 342 -180q127 -180 127 -641q0 -420 -135 -586q-132 -166 -356 -166h-496zM494 1253v-313h79v-287h-79v-303h47q61 0 82 80q22 83 22 336q0 318 -20 399q-18 88 -82 88h-49z" />
    <glyph glyph-name="Ntilde" unicode="&#xd1;" horiz-adv-x="1097" 
d="M1034 1573v-1573h-334q-31 82 -90 248l-118 334q-32 90 -70 252l12 -226q4 -94 4 -207v-401h-375v1573h367q27 -82 78 -244l104 -315q33 -91 58 -211q-11 212 -11 463v307h375zM856 1772q-5 -60 -52 -104t-142 -44q-91 0 -150 47q-55 49 -117 49q-51 0 -51 -45v-30h-119
q-20 40 -20 96q0 65 43.5 114.5t130.5 49.5q108 0 166 -52q58 -49 117 -49q53 0 57 51q0 8 -2 18.5t-2 12.5h119q25 -57 22 -114z" />
    <glyph glyph-name="Ograve" unicode="&#xd2;" horiz-adv-x="1079" 
d="M37 795q0 464 133 635q135 169 367 169q230 0 368 -172q137 -168 137 -632q0 -493 -120 -660q-120 -164 -385 -164q-225 0 -365 158q-135 159 -135 666zM465 791q0 -343 14 -414q15 -76 62 -76q46 0 61 74q14 71 14 416q0 328 -14 405q-12 84 -63 84q-47 0 -62 -82
q-12 -80 -12 -407zM565 1909l105 -271h-230l-245 271h370z" />
    <glyph glyph-name="Oacute" unicode="&#xd3;" horiz-adv-x="1079" 
d="M37 795q0 464 133 635q135 169 367 169q230 0 368 -172q137 -168 137 -632q0 -493 -120 -660q-120 -164 -385 -164q-225 0 -365 158q-135 159 -135 666zM465 791q0 -343 14 -414q15 -76 62 -76q46 0 61 74q14 71 14 416q0 328 -14 405q-12 84 -63 84q-47 0 -62 -82
q-12 -80 -12 -407zM530 1909h342l-229 -271h-217z" />
    <glyph glyph-name="Ocircumflex" unicode="&#xd4;" horiz-adv-x="1079" 
d="M37 795q0 464 133 635q135 169 367 169q230 0 368 -172q137 -168 137 -632q0 -493 -120 -660q-120 -164 -385 -164q-225 0 -365 158q-135 159 -135 666zM465 791q0 -343 14 -414q15 -76 62 -76q46 0 61 74q14 71 14 416q0 328 -14 405q-12 84 -63 84q-47 0 -62 -82
q-12 -80 -12 -407zM707 1892l204 -258h-254l-112 107l-109 -107h-258l209 258h320z" />
    <glyph glyph-name="Otilde" unicode="&#xd5;" horiz-adv-x="1079" 
d="M37 795q0 464 133 635q135 169 367 169q230 0 368 -172q137 -168 137 -632q0 -493 -120 -660q-120 -164 -385 -164q-225 0 -365 158q-135 159 -135 666zM465 791q0 -343 14 -414q15 -76 62 -76q46 0 61 74q14 71 14 416q0 328 -14 405q-12 84 -63 84q-47 0 -62 -82
q-12 -80 -12 -407zM860 1772q-5 -60 -52 -104t-142 -44q-91 0 -150 47q-55 49 -117 49q-51 0 -51 -45v-30h-119q-20 40 -20 96q0 65 43.5 114.5t130.5 49.5q108 0 166 -52q58 -49 117 -49q53 0 57 51q0 8 -2 18.5t-2 12.5h119q25 -57 22 -114z" />
    <glyph glyph-name="Odieresis" unicode="&#xd6;" horiz-adv-x="1079" 
d="M37 795q0 464 133 635q135 169 367 169q230 0 368 -172q137 -168 137 -632q0 -493 -120 -660q-120 -164 -385 -164q-225 0 -365 158q-135 159 -135 666zM465 791q0 -343 14 -414q15 -76 62 -76q46 0 61 74q14 71 14 416q0 328 -14 405q-12 84 -63 84q-47 0 -62 -82
q-12 -80 -12 -407zM455 1882v-248h-260v248h260zM864 1882v-248h-260v248h260z" />
    <glyph glyph-name="multiply" unicode="&#xd7;" horiz-adv-x="1062" 
d="M526 578l-227 -228l-199 199l228 225l-228 230l197 196l227 -229l230 229l196 -196l-227 -228l227 -227l-198 -199z" />
    <glyph glyph-name="Oslash" unicode="&#xd8;" horiz-adv-x="1079" 
d="M45 4l94 178q-102 190 -102 613q0 464 133 635q135 169 367 169q185 0 297 -92l69 131l133 -69q-16 -31 -49 -94q-50 -95 -51 -95q106 -195 106 -585q0 -493 -120 -660q-120 -164 -385 -164q-191 0 -295 82q-11 -18 -31 -55l-29 -57zM616 788l-147 -301q6 -120 23 -155
q19 -31 49 -31q46 0 61 78q14 74 14 409zM465 784l147 301q-3 121 -20 160q-15 35 -53 35q-47 0 -62 -86q-12 -83 -12 -410z" />
    <glyph glyph-name="Ugrave" unicode="&#xd9;" horiz-adv-x="1089" 
d="M1030 1573v-1247q0 -156 -112 -256q-115 -103 -365 -103q-242 0 -363.5 94.5t-121.5 266.5v1245h409v-1159q0 -73 13.5 -101t58.5 -28q43 0 57.5 27.5t14.5 101.5v1159h409zM598 1909l104 -271h-229l-246 271h371z" />
    <glyph glyph-name="Uacute" unicode="&#xda;" horiz-adv-x="1089" 
d="M1030 1573v-1247q0 -156 -112 -256q-115 -103 -365 -103q-242 0 -363.5 94.5t-121.5 266.5v1245h409v-1159q0 -73 13.5 -101t58.5 -28q43 0 57.5 27.5t14.5 101.5v1159h409zM553 1905h342l-229 -271h-217z" />
    <glyph glyph-name="Ucircumflex" unicode="&#xdb;" horiz-adv-x="1089" 
d="M1030 1573v-1247q0 -156 -112 -256q-115 -103 -365 -103q-242 0 -363.5 94.5t-121.5 266.5v1245h409v-1159q0 -73 13.5 -101t58.5 -28q43 0 57.5 27.5t14.5 101.5v1159h409zM709 1892l204 -258h-254l-112 107l-109 -107h-258l209 258h320z" />
    <glyph glyph-name="Udieresis" unicode="&#xdc;" horiz-adv-x="1089" 
d="M1030 1573v-1247q0 -156 -112 -256q-115 -103 -365 -103q-242 0 -363.5 94.5t-121.5 266.5v1245h409v-1159q0 -73 13.5 -101t58.5 -28q43 0 57.5 27.5t14.5 101.5v1159h409zM473 1882v-248h-260v248h260zM883 1882v-248h-260v248h260z" />
    <glyph glyph-name="Yacute" unicode="&#xdd;" horiz-adv-x="1017" 
d="M694 1573h355l-338 -963v-610h-410v610l-332 963h424l148 -520zM494 1921h342l-230 -270h-217z" />
    <glyph glyph-name="Thorn" unicode="&#xde;" horiz-adv-x="1042" 
d="M1014 831q0 -280 -99 -413t-303 -133h-139v-285h-410v1573h420v-266h101q218 0 324 -115t106 -361zM608 827q0 119 -21.5 159t-74.5 40h-39v-459h47q55 0 71.5 52.5t16.5 207.5z" />
    <glyph glyph-name="germandbls" unicode="&#xdf;" horiz-adv-x="1015" 
d="M975 444q0 -271 -84 -358q-83 -86 -297 -86h-111v219h13q54 0 69 41q17 49 17 223q0 139 -21 183q-20 45 -78 45v247q56 0 72 43.5t16 180.5q0 115 -14 152.5t-53 37.5q-38 0 -55 -32t-17 -107v-1233h-373v1206q0 210 123 299q124 92 324 92q193 0 315 -96
q121 -95 121 -338q0 -183 -57 -243q-60 -64 -137 -78q99 -18 163 -103q64 -82 64 -295z" />
    <glyph glyph-name="agrave" unicode="&#xe0;" horiz-adv-x="1021" 
d="M1014 233l4 -202q-95 -51 -238 -51q-80 0 -134.5 39t-72.5 102q-63 -146 -245 -146q-137 0 -220 83t-83 253q0 175 79 254q80 80 302 146q65 19 67 20q70 25 70 121q0 123 -66 123q-31 0 -46 -22.5t-15 -75.5q0 -39 14 -76l-328 -29q-30 65 -30 162q0 297 422 297
q200 0 315 -68t115 -256v-626q0 -29 14 -42.5t35 -13.5q17 0 41 8zM541 305v242q-41 -20 -54 -25q-39 -18 -57 -58.5t-18 -129.5q0 -107 67 -107q30 0 46 23t16 55zM518 1548l105 -270h-230l-246 270h371z" />
    <glyph glyph-name="aacute" unicode="&#xe1;" horiz-adv-x="1021" 
d="M1014 233l4 -202q-95 -51 -238 -51q-80 0 -134.5 39t-72.5 102q-63 -146 -245 -146q-137 0 -220 83t-83 253q0 175 79 254q80 80 302 146q65 19 67 20q70 25 70 121q0 123 -66 123q-31 0 -46 -22.5t-15 -75.5q0 -39 14 -76l-328 -29q-30 65 -30 162q0 297 422 297
q200 0 315 -68t115 -256v-626q0 -29 14 -42.5t35 -13.5q17 0 41 8zM541 305v242q-41 -20 -54 -25q-39 -18 -57 -58.5t-18 -129.5q0 -107 67 -107q30 0 46 23t16 55zM485 1544h342l-229 -270h-217z" />
    <glyph glyph-name="acircumflex" unicode="&#xe2;" horiz-adv-x="1021" 
d="M1014 233l4 -202q-95 -51 -238 -51q-80 0 -134.5 39t-72.5 102q-63 -146 -245 -146q-137 0 -220 83t-83 253q0 175 79 254q80 80 302 146q65 19 67 20q70 25 70 121q0 123 -66 123q-31 0 -46 -22.5t-15 -75.5q0 -39 14 -76l-328 -29q-30 65 -30 162q0 297 422 297
q200 0 315 -68t115 -256v-626q0 -29 14 -42.5t35 -13.5q17 0 41 8zM541 305v242q-41 -20 -54 -25q-39 -18 -57 -58.5t-18 -129.5q0 -107 67 -107q30 0 46 23t16 55zM659 1534l205 -258h-254l-112 106l-109 -106h-258l209 258h319z" />
    <glyph glyph-name="atilde" unicode="&#xe3;" horiz-adv-x="1021" 
d="M1014 233l4 -202q-95 -51 -238 -51q-80 0 -134.5 39t-72.5 102q-63 -146 -245 -146q-137 0 -220 83t-83 253q0 175 79 254q80 80 302 146q65 19 67 20q70 25 70 121q0 123 -66 123q-31 0 -46 -22.5t-15 -75.5q0 -39 14 -76l-328 -29q-30 65 -30 162q0 297 422 297
q200 0 315 -68t115 -256v-626q0 -29 14 -42.5t35 -13.5q17 0 41 8zM817 1417q-5 -60 -52 -103.5t-142 -43.5q-91 0 -150 47q-55 49 -117 49q-28 0 -39.5 -14t-11.5 -31v-31h-119q-20 32 -20 96q0 65 44.5 114.5t129.5 49.5q107 0 164 -51q61 -49 119 -49q57 0 57 51
q2 13 -4 31h119q22 -36 22 -115zM541 305v242q-41 -20 -54 -25q-39 -18 -57 -58.5t-18 -129.5q0 -107 67 -107q30 0 46 23t16 55z" />
    <glyph glyph-name="adieresis" unicode="&#xe4;" horiz-adv-x="1021" 
d="M1014 233l4 -202q-95 -51 -238 -51q-80 0 -134.5 39t-72.5 102q-63 -146 -245 -146q-137 0 -220 83t-83 253q0 175 79 254q80 80 302 146q65 19 67 20q70 25 70 121q0 123 -66 123q-31 0 -46 -22.5t-15 -75.5q0 -39 14 -76l-328 -29q-30 65 -30 162q0 297 422 297
q200 0 315 -68t115 -256v-626q0 -29 14 -42.5t35 -13.5q17 0 41 8zM541 305v242q-41 -20 -54 -25q-39 -18 -57 -58.5t-18 -129.5q0 -107 67 -107q30 0 46 23t16 55zM420 1530v-248h-260v248h260zM829 1530v-248h-260v248h260z" />
    <glyph glyph-name="aring" unicode="&#xe5;" horiz-adv-x="1021" 
d="M1014 233l4 -202q-95 -51 -238 -51q-80 0 -134.5 39t-72.5 102q-63 -146 -245 -146q-137 0 -220 83t-83 253q0 175 79 254q80 80 302 146q65 19 67 20q70 25 70 121q0 123 -66 123q-31 0 -46 -22.5t-15 -75.5q0 -39 14 -76l-328 -29q-30 65 -30 162q0 297 422 297
q200 0 315 -68t115 -256v-626q0 -29 14 -42.5t35 -13.5q17 0 41 8zM541 305v242q-41 -20 -54 -25q-39 -18 -57 -58.5t-18 -129.5q0 -107 67 -107q30 0 46 23t16 55zM743 1516q0 -97 -71 -168q-70 -70 -172 -70q-100 0 -170 70q-72 72 -72 168q0 95 72 167q70 70 170 70
q102 0 172 -70q71 -71 71 -167zM608 1516q0 44 -32 75t-76 31t-75.5 -31t-31.5 -75q0 -43 31.5 -74t75.5 -31t76 31t32 74z" />
    <glyph glyph-name="ae" unicode="&#xe6;" horiz-adv-x="1474" 
d="M627 152q-41 -83 -110 -130t-185 -47q-137 0 -220 83t-83 253q0 174 80 254q81 81 301 146q65 19 67 20q70 25 70 121q0 123 -66 123q-31 0 -46 -22.5t-15 -75.5q0 -39 14 -76l-328 -29q-30 65 -30 162q0 297 422 297q173 0 254 -94q103 98 260 98q211 0 313.5 -128
t108.5 -405q0 -64 -15 -192h-493q2 -137 21 -196.5t73 -59.5q84 0 84 123q0 21 -6 69l338 -12q10 -52 10 -115q0 -165 -104.5 -255.5t-319.5 -90.5q-136 0 -235 39t-160 140zM545 305v242q-43 -22 -53 -25q-40 -19 -58 -59t-18 -129q0 -107 67 -107q29 0 45.5 23t16.5 55z
M1075 774q-1 106 -17 145t-54 39q-45 0 -60 -49q-15 -46 -18 -198h147q0 8 1 31t1 32z" />
    <glyph glyph-name="ccedilla" unicode="&#xe7;" horiz-adv-x="946" 
d="M922 352q-4 -189 -110 -284t-304 -95q-225 0 -352 133q-123 132 -123 490q0 375 137 506t334 131q194 0 293.5 -101.5t101.5 -285.5q0 -67 -10 -119l-338 -10q10 27 10 96q0 76 -13.5 108.5t-47.5 32.5q-43 0 -58 -61q-14 -55 -14 -309q0 -209 16 -271q15 -57 66 -57
q82 0 82 162q0 62 -10 117l319 -9q23 -117 21 -174zM735 -225q0 -103 -72.5 -160t-203.5 -57q-205 0 -293 77l67 125q32 -25 87.5 -40t115.5 -15q80 0 80 53q0 56 -70 56q-44 0 -81 -15l36 158h88q119 0 182.5 -51.5t63.5 -130.5z" />
    <glyph glyph-name="egrave" unicode="&#xe8;" horiz-adv-x="970" 
d="M940 319q0 -165 -104.5 -255.5t-319.5 -90.5q-198 0 -342 111q-143 110 -143 512q0 357 129 498t346 141q211 0 313.5 -128t108.5 -405q0 -64 -15 -192h-493q2 -137 21 -196.5t73 -59.5q84 0 84 123q0 21 -6 69l338 -12q10 -52 10 -115zM569 774q-1 106 -17 145t-54 39
q-45 0 -60 -49q-15 -46 -18 -198h147q0 8 1 31t1 32zM516 1548l105 -270h-230l-246 270h371z" />
    <glyph glyph-name="eacute" unicode="&#xe9;" horiz-adv-x="970" 
d="M940 319q0 -165 -104.5 -255.5t-319.5 -90.5q-198 0 -342 111q-143 110 -143 512q0 357 129 498t346 141q211 0 313.5 -128t108.5 -405q0 -64 -15 -192h-493q2 -137 21 -196.5t73 -59.5q84 0 84 123q0 21 -6 69l338 -12q10 -52 10 -115zM569 774q-1 106 -17 145t-54 39
q-45 0 -60 -49q-15 -46 -18 -198h147q0 8 1 31t1 32zM477 1544h342l-229 -270h-217z" />
    <glyph glyph-name="ecircumflex" unicode="&#xea;" horiz-adv-x="970" 
d="M940 319q0 -165 -104.5 -255.5t-319.5 -90.5q-198 0 -342 111q-143 110 -143 512q0 357 129 498t346 141q211 0 313.5 -128t108.5 -405q0 -64 -15 -192h-493q2 -137 21 -196.5t73 -59.5q84 0 84 123q0 21 -6 69l338 -12q10 -52 10 -115zM569 774q-1 106 -17 145t-54 39
q-45 0 -60 -49q-15 -46 -18 -198h147q0 8 1 31t1 32zM659 1534l205 -258h-254l-112 106l-109 -106h-258l209 258h319z" />
    <glyph glyph-name="edieresis" unicode="&#xeb;" horiz-adv-x="970" 
d="M940 319q0 -165 -104.5 -255.5t-319.5 -90.5q-198 0 -342 111q-143 110 -143 512q0 357 129 498t346 141q211 0 313.5 -128t108.5 -405q0 -64 -15 -192h-493q2 -137 21 -196.5t73 -59.5q84 0 84 123q0 21 -6 69l338 -12q10 -52 10 -115zM569 774q-1 106 -17 145t-54 39
q-45 0 -60 -49q-15 -46 -18 -198h147q0 8 1 31t1 32zM432 1530v-248h-260v248h260zM842 1530v-248h-260v248h260z" />
    <glyph glyph-name="igrave" unicode="&#xec;" horiz-adv-x="501" 
d="M442 1192v-1192h-383v1192h383zM283 1548l104 -270h-229l-246 270h371z" />
    <glyph glyph-name="iacute" unicode="&#xed;" horiz-adv-x="501" 
d="M442 1192v-1192h-383v1192h383zM233 1544h342l-229 -270h-217z" />
    <glyph glyph-name="icircumflex" unicode="&#xee;" horiz-adv-x="501" 
d="M442 1192v-1192h-383v1192h383zM399 1534l205 -258h-254l-112 106l-109 -106h-258l209 258h319z" />
    <glyph glyph-name="idieresis" unicode="&#xef;" horiz-adv-x="501" 
d="M174 1507v-252h-264v252h264zM442 1151v-1151h-383v1151h383zM578 1507v-252h-265v252h265z" />
    <glyph glyph-name="eth" unicode="&#xf0;" horiz-adv-x="993" 
d="M545 1096q-2 38 -33 161q-58 -13 -61 -55q0 -15 8 -28l-70 -46q-22 9 -47 44t-25 73q0 77 132 135q-24 27 -72 27q-46 0 -85 -18.5t-61 -42.5l-63 180q27 30 104 51q80 22 138 22q268 0 366 -141q16 7 26.5 22t10.5 27q0 18 -10 41l71 43q87 -63 87 -135q0 -82 -117 -137
q49 -124 83 -306t34 -382q0 -378 -119 -518q-122 -140 -346 -140q-228 0 -346.5 133.5t-118.5 419.5q0 316 127 449t323 133q36 0 64 -12zM567 530q0 221 -16 277q-15 51 -55 51q-41 0 -56 -57q-14 -55 -14 -271q0 -213 14 -262q15 -49 56 -49q40 0 55 47q16 53 16 264z" />
    <glyph glyph-name="ntilde" unicode="&#xf1;" horiz-adv-x="1019" 
d="M442 0h-383v1192h377v-154q29 68 96 127q71 62 170 62q136 0 200.5 -66t64.5 -213v-948h-385v850q0 39 -17 58.5t-45 19.5q-34 0 -56 -25.5t-22 -81.5v-821zM829 1415q-5 -60 -52 -103.5t-142 -43.5q-91 0 -150 47q-55 49 -116 49q-52 0 -52 -45v-31h-118q-21 42 -21 96
q0 65 43.5 114.5t130.5 49.5q109 0 166 -51q58 -49 117 -49q53 0 57 51q0 8 -2 18.5t-2 12.5h119q25 -57 22 -115z" />
    <glyph glyph-name="ograve" unicode="&#xf2;" horiz-adv-x="995" 
d="M33 588q0 352 127 497q130 148 336 148q212 0 340 -146q127 -145 127 -499q0 -338 -119 -475q-122 -140 -346 -140q-465 0 -465 615zM428 592q0 -222 14 -277q15 -59 56 -59q40 0 55 57q16 62 16 279q0 246 -16 305q-15 57 -55 57q-41 0 -56 -63q-14 -60 -14 -299z
M518 1548l105 -270h-230l-246 270h371z" />
    <glyph glyph-name="oacute" unicode="&#xf3;" horiz-adv-x="995" 
d="M33 588q0 352 127 497q130 148 336 148q212 0 340 -146q127 -145 127 -499q0 -338 -119 -475q-122 -140 -346 -140q-465 0 -465 615zM428 592q0 -222 14 -277q15 -59 56 -59q40 0 55 57q16 62 16 279q0 246 -16 305q-15 57 -55 57q-41 0 -56 -63q-14 -60 -14 -299z
M475 1544h342l-229 -270h-217z" />
    <glyph glyph-name="ocircumflex" unicode="&#xf4;" horiz-adv-x="995" 
d="M33 588q0 352 127 497q130 148 336 148q212 0 340 -146q127 -145 127 -499q0 -338 -119 -475q-122 -140 -346 -140q-465 0 -465 615zM428 592q0 -222 14 -277q15 -59 56 -59q40 0 55 57q16 62 16 279q0 246 -16 305q-15 57 -55 57q-41 0 -56 -63q-14 -60 -14 -299z
M649 1534l205 -258h-254l-113 106l-108 -106h-258l209 258h319z" />
    <glyph glyph-name="otilde" unicode="&#xf5;" horiz-adv-x="995" 
d="M33 588q0 352 127 497q130 148 336 148q212 0 340 -146q127 -145 127 -499q0 -338 -119 -475q-122 -140 -346 -140q-465 0 -465 615zM428 592q0 -222 14 -277q15 -59 56 -59q40 0 55 57q16 62 16 279q0 246 -16 305q-15 57 -55 57q-41 0 -56 -63q-14 -60 -14 -299z
M821 1417q-5 -60 -52 -103.5t-142 -43.5q-91 0 -150 47q-55 49 -117 49q-51 0 -51 -45v-31h-119q-20 40 -20 96q0 65 43.5 114.5t130.5 49.5q109 0 166 -51q58 -49 117 -49q53 0 57 51q0 8 -2 18.5t-2 12.5h119q25 -57 22 -115z" />
    <glyph glyph-name="odieresis" unicode="&#xf6;" horiz-adv-x="995" 
d="M33 588q0 352 127 497q130 148 336 148q212 0 340 -146q127 -145 127 -499q0 -338 -119 -475q-122 -140 -346 -140q-465 0 -465 615zM428 592q0 -222 14 -277q15 -59 56 -59q40 0 55 57q16 62 16 279q0 246 -16 305q-15 57 -55 57q-41 0 -56 -63q-14 -60 -14 -299z
M416 1526v-248h-260v248h260zM825 1526v-248h-260v248h260z" />
    <glyph glyph-name="oslash" unicode="&#xf8;" horiz-adv-x="995" 
d="M37 2l96 145q-100 148 -100 441q0 352 127 497q130 148 336 148q182 0 290 -94l76 114l105 -71l-97 -144q93 -158 93 -450q0 -338 -119 -475q-122 -140 -346 -140q-172 0 -277 80l-80 -119zM569 602l-135 -225q6 -72 19.5 -96.5t44.5 -24.5q40 0 55 66q16 72 16 280z
M428 575l137 228q-4 67 -13 100.5t-20.5 42t-33.5 8.5q-41 0 -56 -73q-14 -66 -14 -306z" />
    <glyph glyph-name="ugrave" unicode="&#xf9;" horiz-adv-x="1019" 
d="M958 1192v-1192h-376v143q-19 -52 -90 -114q-68 -56 -168 -56q-273 0 -273 285v934h385v-852q0 -39 18 -57.5t46 -18.5q32 0 53.5 26.5t21.5 80.5v821h383zM518 1548l105 -270h-230l-246 270h371z" />
    <glyph glyph-name="uacute" unicode="&#xfa;" horiz-adv-x="1019" 
d="M958 1192v-1192h-376v143q-19 -52 -90 -114q-68 -56 -168 -56q-273 0 -273 285v934h385v-852q0 -39 18 -57.5t46 -18.5q32 0 53.5 26.5t21.5 80.5v821h383zM498 1544h342l-230 -270h-217z" />
    <glyph glyph-name="ucircumflex" unicode="&#xfb;" horiz-adv-x="1019" 
d="M958 1192v-1192h-376v143q-19 -52 -90 -114q-68 -56 -168 -56q-273 0 -273 285v934h385v-852q0 -39 18 -57.5t46 -18.5q32 0 53.5 26.5t21.5 80.5v821h383zM666 1534l204 -258h-254l-112 106l-109 -106h-258l209 258h320z" />
    <glyph glyph-name="udieresis" unicode="&#xfc;" horiz-adv-x="1019" 
d="M958 1192v-1192h-376v143q-19 -52 -90 -114q-68 -56 -168 -56q-273 0 -273 285v934h385v-852q0 -39 18 -57.5t46 -18.5q32 0 53.5 26.5t21.5 80.5v821h383zM432 1526v-248h-260v248h260zM842 1526v-248h-260v248h260z" />
    <glyph glyph-name="yacute" unicode="&#xfd;" horiz-adv-x="980" 
d="M618 1192h357l-295 -1225q-94 -385 -424 -385q-342 -3 -342 250q0 44 14 98l295 23q-10 -17 -10 -72q0 -12 1.5 -19.5t5.5 -15.5t13 -12t23 -4q22 0 33 18t24 66q0 3 3.5 21t5 33.5t0.5 25.5l-332 1198h397l121 -664zM494 1544h342l-230 -270h-217z" />
    <glyph glyph-name="thorn" unicode="&#xfe;" horiz-adv-x="1009" 
d="M971 575q0 -361 -99 -481q-98 -119 -235 -119q-68 0 -119 41.5t-76 92.5v-476h-383v1940h383v-498q30 61 81.5 103.5t125.5 42.5q143 0 232 -123q90 -122 90 -523zM578 590q0 233 -19 295q-15 61 -55 61q-43 0 -58 -63q-16 -69 -16 -293q0 -200 16 -266q15 -60 56 -60
q34 0 55 58t21 268z" />
    <glyph glyph-name="ydieresis" unicode="&#xff;" horiz-adv-x="980" 
d="M618 1192h357l-295 -1225q-94 -385 -424 -385q-342 -3 -342 250q0 44 14 98l295 23q-10 -17 -10 -72q0 -12 1.5 -19.5t5.5 -15.5t13 -12t23 -4q22 0 33 18t24 66q0 3 3.5 21t5 33.5t0.5 25.5l-332 1198h397l121 -664zM430 1526v-248h-260v248h260zM840 1526v-248h-260
v248h260z" />
    <glyph glyph-name="dotlessi" unicode="&#x131;" horiz-adv-x="501" 
d="M442 1192v-1192h-383v1192h383z" />
    <glyph glyph-name="Lslash" unicode="&#x141;" horiz-adv-x="886" 
d="M823 877l-309 -189v-381h356v-307h-766v459l-45 -27l-98 232l143 88v821h410v-590l201 125z" />
    <glyph glyph-name="lslash" unicode="&#x142;" horiz-adv-x="583" 
d="M-51 653l151 97v823h383v-623l43 27l113 -217l-156 -96v-664h-383v463l-41 -25z" />
    <glyph glyph-name="OE" unicode="&#x152;" horiz-adv-x="1417" 
d="M762 1573h608v-299h-348v-311h305v-324h-305v-332h381v-307h-299q-199 2 -301 2q-103 -29 -232 -29q-245 0 -389 156q-143 155 -143 649q0 496 137 654q136 161 404 161q64 0 182 -20zM614 334v915q-24 39 -61 39q-59 0 -74 -80q-14 -71 -14 -422q0 -329 16 -411
q15 -74 74 -74q35 0 59 33z" />
    <glyph glyph-name="oe" unicode="&#x153;" horiz-adv-x="1507" 
d="M764 39q-95 -66 -266 -66q-465 0 -465 615q0 352 127 497q130 148 336 148q161 0 268 -76q108 78 280 78q211 0 313.5 -128t108.5 -405q0 -73 -14 -192h-494q2 -136 21.5 -196t73.5 -60q84 0 84 123q0 13 -7 69l338 -12q11 -57 11 -115q0 -165 -104 -255.5t-320 -90.5
q-185 0 -291 66zM569 592q0 246 -16 305q-15 57 -55 57q-41 0 -56 -63q-14 -60 -14 -299q0 -222 14 -277q15 -59 56 -59q40 0 55 57q16 62 16 279zM1108 774q0 105 -17 144.5t-55 39.5q-44 0 -59 -49q-16 -50 -19 -198h148q2 16 2 63z" />
    <glyph glyph-name="Scaron" unicode="&#x160;" horiz-adv-x="1015" 
d="M981 412q0 -217 -121.5 -331t-357.5 -114q-200 0 -328 88q-127 89 -127 320q0 100 27 196l372 11q-14 -103 -14 -195q0 -61 14.5 -89t55.5 -28q34 0 46.5 24.5t12.5 70.5q0 140 -41 196q-39 56 -145 115l-94 51q-127 68 -179.5 183t-52.5 280q0 198 120 302.5t331 104.5
q204 0 321 -91.5t117 -260.5q0 -74 -20 -147l-365 -25q14 72 14 156q0 50 -10.5 73t-48.5 23q-33 0 -45 -21.5t-12 -62.5q0 -109 41 -156q36 -42 110 -84l109 -61q153 -87 211 -203q59 -115 59 -325zM340 1657l-207 258h258l111 -107l110 107h260l-208 -258h-324z" />
    <glyph glyph-name="scaron" unicode="&#x161;" horiz-adv-x="944" 
d="M918 348q0 -179 -117 -276t-336 -97q-194 0 -310.5 77.5t-117.5 221.5q0 70 14 125l311 21q-12 -47 -12 -94q0 -109 96 -109q46 0 67.5 25.5t21.5 60.5q0 77 -37.5 120t-122.5 75q-17 7 -43.5 15.5t-42.5 14.5q-127 45 -184 128.5t-56 234.5q0 158 119.5 249t314.5 91
q172 0 287 -74q116 -75 119 -223q3 -60 -4 -80l-312 -27q0 1 1.5 31t0.5 45q-11 90 -88 90q-39 0 -57 -19.5t-18 -47.5q0 -45 26 -75.5t99 -53.5q7 -2 41 -15.5t51 -19.5q157 -62 223 -159t66 -255zM336 1272l-207 258h258l111 -107l110 107h260l-209 -258h-323z" />
    <glyph glyph-name="Ydieresis" unicode="&#x178;" horiz-adv-x="1017" 
d="M694 1573h355l-338 -963v-610h-410v610l-332 963h424l148 -520zM463 1896v-247h-260v247h260zM872 1896v-247h-260v247h260z" />
    <glyph glyph-name="Zcaron" unicode="&#x17d;" horiz-adv-x="890" 
d="M858 307v-307h-852v240l424 1034h-360v299h788v-252l-403 -1014h403zM346 1649l-207 258h258l111 -107l110 107h261l-209 -258h-324z" />
    <glyph glyph-name="zcaron" unicode="&#x17e;" horiz-adv-x="851" 
d="M815 266v-266h-780v231l371 701h-330v260h745v-260l-360 -666h354zM297 1272l-207 258h258l111 -107l110 107h260l-208 -258h-324z" />
    <glyph glyph-name="florin" unicode="&#x192;" horiz-adv-x="1116" 
d="M1139 1358q0 -67 -27 -172q-45 -7 -133 -17q-123 -14 -135 -14q20 79 22 115q0 51 -7 71.5t-34 20.5q-24 0 -36.5 -20t-18.5 -68l-27 -373h179v-246h-205l-60 -661q-13 -146 -128 -228.5t-291 -82.5q-175 0 -270 68t-95 181q0 64 23 121q45 2 137 8q41 3 75.5 5.5
t49.5 3.5l16 2q-14 -37 -14 -82q0 -35 10.5 -53.5t38.5 -18.5q18 0 29.5 8.5t18.5 29.5t10 41.5t7 57.5l54 600h-144v246h170l31 402q12 153 129 223q116 73 270 73q159 0 257 -65.5t98 -175.5z" />
    <glyph glyph-name="quoteleft" unicode="&#x2bb;" horiz-adv-x="532" 
d="M88 938v324q0 107 31 165q28 63 100 123q33 27 72.5 50t60.5 30l51 -139q-38 -22 -75 -61q-39 -39 -39 -103v-33h157v-356h-358z" />
    <glyph glyph-name="quoteleft" unicode="&#x2018;" horiz-adv-x="532" 
d="M88 938v324q0 107 31 165q28 63 100 123q33 27 72.5 50t60.5 30l51 -139q-38 -22 -75 -61q-39 -39 -39 -103v-33h157v-356h-358z" />
    <glyph glyph-name="circumflex" unicode="&#x2c6;" 
d="M627 1536l204 -258h-253l-113 106l-109 -106h-258l209 258h320z" />
    <glyph glyph-name="caron" unicode="&#x2c7;" 
d="M313 1278l-207 258h259l110 -106l111 106h260l-209 -258h-324z" />
    <glyph glyph-name="breve" unicode="&#x2d8;" 
d="M600 1561h186q-4 -137 -90.5 -207t-230.5 -70q-146 0 -231 69.5t-89 207.5h189q0 -37 38 -66t93 -29t95 29.5t40 65.5z" />
    <glyph glyph-name="dotaccent" unicode="&#x2d9;" 
d="M614 1563v-271h-299v271h299z" />
    <glyph glyph-name="ring" unicode="&#x2da;" 
d="M709 1507q0 -96 -72 -168q-69 -69 -172 -69q-101 0 -170 69q-72 72 -72 168t72 168q70 70 170 70q102 0 172 -70q72 -72 72 -168zM573 1507q0 44 -32 75.5t-76 31.5q-43 0 -75 -31.5t-32 -75.5q0 -42 32 -73t75 -31q44 0 76 30.5t32 73.5z" />
    <glyph glyph-name="ogonek" unicode="&#x2db;" 
d="M553 -172l133 -51q0 -24 -8 -43q-24 -71 -83 -110.5t-149 -39.5q-98 0 -154.5 49t-55.5 134q3 79 69 145q67 61 137 88h148q-54 -31 -111 -88q-56 -59 -59 -109q-3 -65 53 -65q21 0 38 12.5t24 28.5q15 27 18 49z" />
    <glyph glyph-name="tilde" unicode="&#x2dc;" 
d="M791 1423q-5 -60 -52.5 -103.5t-142.5 -43.5q-91 0 -150 47q-55 49 -116 49q-51 0 -51 -45v-31h-119q-21 42 -21 97q0 65 43.5 114t130.5 49q109 0 166 -51q58 -49 117 -49q53 0 57 51q0 8 -2 18.5t-2 12.5h119q26 -59 23 -115z" />
    <glyph glyph-name="hungarumlaut" unicode="&#x2dd;" 
d="M307 1552h297l-211 -270h-182zM672 1552h299l-246 -270h-186z" />
    <glyph glyph-name="endash" unicode="&#x2013;" horiz-adv-x="1187" 
d="M1128 813v-270h-1071v270h1071z" />
    <glyph glyph-name="emdash" unicode="&#x2014;" horiz-adv-x="1796" 
d="M1739 813v-270h-1682v270h1682z" />
    <glyph glyph-name="quoteright" unicode="&#x2019;" horiz-adv-x="532" 
d="M442 1573v-324q0 -110 -30 -166q-16 -36 -38.5 -62.5t-62.5 -59.5q-33 -28 -72 -51t-61 -29l-51 139q34 19 76 61q39 50 39 103v33h-158v356h358z" />
    <glyph glyph-name="quotesinglbase" unicode="&#x201a;" horiz-adv-x="532" 
d="M442 356v-323q0 -110 -30 -166q-30 -63 -101 -123q-33 -28 -72 -51t-61 -29l-51 139q39 22 76 62q39 50 39 102v33h-158v356h358z" />
    <glyph glyph-name="quotedblleft" unicode="&#x201c;" horiz-adv-x="983" 
d="M88 938v324q0 107 31 165q28 63 100 123q33 27 72.5 50t60.5 30l51 -139q-38 -22 -75 -61q-39 -39 -39 -103v-33h157v-356h-358zM539 938v324q0 109 30 165q28 62 101 123q33 28 72 51t61 29l51 -139q-41 -23 -76 -61q-39 -50 -39 -103v-33h158v-356h-358z" />
    <glyph glyph-name="quotedblright" unicode="&#x201d;" horiz-adv-x="983" 
d="M442 1573v-324q0 -110 -30 -166q-16 -36 -38.5 -62.5t-62.5 -59.5q-33 -28 -72 -51t-61 -29l-51 139q34 19 76 61q39 50 39 103v33h-158v356h358zM895 1573v-324q0 -108 -31 -166q-28 -62 -100 -122q-33 -27 -72.5 -50t-60.5 -30l-51 139q32 18 75 61q39 39 39 103v33
h-157v356h358z" />
    <glyph glyph-name="quotedblbase" unicode="&#x201e;" horiz-adv-x="983" 
d="M442 356v-323q0 -110 -30 -166q-30 -63 -101 -123q-33 -28 -72 -51t-61 -29l-51 139q39 22 76 62q39 50 39 102v33h-158v356h358zM893 356v-323q0 -108 -31 -166q-30 -65 -100 -123q-33 -27 -72.5 -50t-60.5 -30l-51 139q37 20 75 62q39 39 39 102v33h-157v356h358z" />
    <glyph glyph-name="dagger" unicode="&#x2020;" horiz-adv-x="952" 
d="M903 1227v-258h-166l-123 26l41 -188l-84 -1008h-198l-80 1008l41 188l-125 -26h-162v258h162l125 -25l-41 189v182h362v-182l-41 -189l123 25h166z" />
    <glyph glyph-name="daggerdbl" unicode="&#x2021;" horiz-adv-x="950" 
d="M668 748l-54 -308l123 25h166v-256h-166l-123 24l41 -167v-201h-362v201l41 167l-125 -24h-162v256h162l125 -25l-58 308l58 290l-125 -26h-162v256h162l125 -25l-41 168v162h362v-162l-41 -168l123 25h166v-256h-166l-123 26z" />
    <glyph glyph-name="bullet" unicode="&#x2022;" horiz-adv-x="1230" 
d="M1122 768q0 -208 -149 -354t-357 -146q-204 0 -356 146q-147 147 -147 354q0 210 147 354q151 148 356 148q209 0 357 -148q149 -143 149 -354z" />
    <glyph glyph-name="ellipsis" unicode="&#x2026;" horiz-adv-x="1513" 
d="M434 362v-362h-364v362h364zM938 362v-362h-365v362h365zM1444 362v-362h-367v362h367z" />
    <glyph glyph-name="perthousand" unicode="&#x2030;" horiz-adv-x="2512" 
d="M768 1133q0 -220 -98 -327.5t-269 -107.5q-158 0 -264 95q-104 94 -104 340q0 276 110 364q115 92 258 92q162 0 265 -92q102 -89 102 -364zM467 1141q0 149 -14 200.5t-56 51.5q-38 0 -50.5 -51t-12.5 -199q0 -147 12.5 -196.5t50.5 -49.5q42 0 56 50t14 194zM1677 414
q0 -220 -97.5 -327t-268.5 -107q-160 0 -264 94q-105 94 -105 340q0 274 111 362q115 92 258 92q161 0 264 -92q102 -88 102 -362zM1376 420q0 151 -13.5 201.5t-55.5 50.5q-38 0 -51 -51.5t-13 -198.5q0 -146 13 -196t51 -50q41 0 55 50.5t14 193.5zM2474 414
q0 -218 -100 -326t-269 -108q-160 0 -264 94t-104 340q0 274 110 362q115 92 258 92q162 0 265 -92q104 -88 104 -362zM2171 420q0 152 -13 202t-55 50q-40 0 -52.5 -50t-12.5 -200q0 -146 13.5 -196t51.5 -50q41 0 54.5 50t13.5 194zM1266 1559h231l-1059 -1559h-231z" />
    <glyph glyph-name="guilsinglleft" unicode="&#x2039;" horiz-adv-x="557" 
d="M494 422v-371l-431 342v391l431 338v-370l-211 -164z" />
    <glyph glyph-name="guilsinglright" unicode="&#x203a;" horiz-adv-x="557" 
d="M494 393l-431 -342v371l211 166l-211 164v370l431 -338v-391z" />
    <glyph glyph-name="fraction" unicode="&#x2044;" horiz-adv-x="628" 
d="M721 1606h240l-1051 -1626h-242z" />
    <glyph glyph-name="fraction" unicode="&#x2215;" horiz-adv-x="628" 
d="M721 1606h240l-1051 -1626h-242z" />
    <glyph glyph-name="Euro" unicode="&#x20ac;" horiz-adv-x="1169" 
d="M63 741h95v103h-95v215h109q43 301 182 422q139 118 330 118q211 0 322 -112t116 -313v-31l-377 -21v27q0 139 -71 139q-37 0 -56.5 -49.5t-23.5 -179.5h287v-215h-297q0 -19 -1 -50.5t-1 -52.5h299v-215h-287q6 -149 27 -202.5t67 -53.5q43 0 67.5 40.5t24.5 117.5v35
l365 -23q0 -1 1 -18t1 -31q-6 -193 -128 -306.5t-333 -113.5q-217 0 -350 121q-131 122 -166 434h-107v215z" />
    <glyph glyph-name="uni2117" unicode="&#x2117;" horiz-adv-x="1499" 
d="M1415 971q0 -271 -194 -465q-194 -191 -476 -191q-285 0 -473 191t-188 465q0 272 188 463q189 192 473 192t476 -192q194 -191 194 -463zM1294 971q0 224 -149 379t-400 155q-244 0 -393 -155t-149 -379t145 -381q147 -156 397 -156q255 0 402 156t147 381zM1063 1143
q0 -121 -63 -191.5t-169 -70.5h-100v-314h-219v830h328q223 0 223 -254zM838 1149q0 70 -19.5 94.5t-60.5 24.5h-27v-248h31q36 0 56 27.5t20 101.5z" />
    <glyph glyph-name="trademark" unicode="&#x2122;" horiz-adv-x="1327" 
d="M1251 1573v-580h-184v371l-84 -371h-129l-90 371v-371h-186v580h278l64 -270l65 270h266zM526 1573v-137h-133v-443h-227v443h-131v137h491z" />
    <glyph glyph-name="minus" unicode="&#x2212;" horiz-adv-x="1062" 
d="M993 639h-921v279h921v-279z" />
    <glyph glyph-name="radical" unicode="&#x221a;" horiz-adv-x="1419" 
d="M1251 1778l348 133q-138 -163 -290 -463q-166 -323 -250 -539q-257 -654 -346 -1112l-213 -94l-477 844l309 141l235 -473q84 327 264 746q195 460 420 817z" />
    <glyph glyph-name="apple" unicode="&#xf8ff;" horiz-adv-x="841" 
d="M772 760q0 -335 -104 -570q-101 -235 -246 -235q-144 0 -248 235t-104 570q0 336 104 571q105 240 248 240q144 0 246 -240q104 -235 104 -571zM532 594l189 49l-170 248l-8 489l-152 -344l-213 92l123 -352l-143 -360l233 98l96 -467z" />
    <glyph glyph-name="fi" unicode="&#xfb01;" horiz-adv-x="1107" 
d="M956 1366q0 -58 -14 -98l-326 -27q11 29 11 74q0 47 -15 68.5t-47 21.5q-57 0 -57 -70v-143h541v-1192h-385v946h-156v-946h-383v946h-121v246h121v137q0 155 127 223q125 70 291 70q152 0 280 -61q130 -59 133 -195z" />
    <glyph glyph-name="fl" unicode="&#xfb02;" horiz-adv-x="1105" 
d="M664 0v946h-156v-946h-383v946h-121v246h121v123q0 132 106.5 215.5t298.5 83.5q132 0 199 -41h320v-1573h-385zM508 1192h156v164q-28 39 -76 39q-41 0 -60.5 -28t-19.5 -71v-104z" />
    <glyph glyph-name="NUL" horiz-adv-x="0" 
 />
    <glyph glyph-name="CR" horiz-adv-x="495" 
 />
    </font>
</defs>
</svg>
